<?xml version="1.0" encoding="utf-8"?>
<!-- Generator: Adobe Illustrator 23.0.3, SVG Export Plug-In . SVG Version: 6.00 Build 0)  -->
<svg version="1.1" id="Layer_1" xmlns="http://www.w3.org/2000/svg" xmlns:xlink="http://www.w3.org/1999/xlink" x="0px" y="0px"
	 viewBox="0 0 140 150" style="enable-background:new 0 0 140 150;" xml:space="preserve">
<style type="text/css">
	.st0{clip-path:url(#SVGID_2_);}
	.st1{fill:#73584E;}
	.st2{fill:#FCC5A7;}
	.st3{fill:#F7FCFE;}
	.st4{fill:#C54527;}
	.st5{fill:#ECEEEE;}
	.st6{fill:#D3D3D3;}
	.st7{display:none;}
	.st8{display:inline;fill:#FAB294;}
	.st9{display:inline;}
	.st10{fill:#FCCAAB;}
	.st11{fill:url(#SVGID_3_);}
	.st12{fill:url(#SVGID_4_);}
	.st13{display:inline;fill:#FAC0A1;}
	.st14{fill:none;stroke:#F68F6D;stroke-width:0.5572;stroke-linecap:round;stroke-linejoin:round;stroke-miterlimit:10;}
	.st15{fill:#383938;}
	.st16{fill:none;stroke:#383938;stroke-width:0.8534;stroke-linecap:round;stroke-linejoin:round;stroke-miterlimit:10;}
	.st17{fill:#FAB491;}
	.st18{fill:#F79D80;}
	.st19{fill:#193145;}
	.st20{fill:#10293B;}
	.st21{display:none;opacity:0.3;fill:#D54848;}
	.st22{display:none;fill:#193145;}
	.st23{fill:#224157;}
	.st24{display:inline;fill:#832721;}
	.st25{display:inline;fill:#BA3B3B;}
	.st26{display:inline;fill:#FFFFFF;}
	.st27{opacity:0.45;}
	.st28{fill:#254A64;}
	.st29{clip-path:url(#SVGID_6_);}
	.st30{fill:#FAB294;}
	.st31{fill:url(#SVGID_7_);}
	.st32{fill:url(#SVGID_8_);}
	.st33{fill:#FAC0A1;}
	.st34{fill:none;stroke:#F68F6D;stroke-width:0.6605;stroke-linecap:round;stroke-linejoin:round;stroke-miterlimit:10;}
	.st35{fill:none;stroke:#383938;stroke-width:1.0116;stroke-linecap:round;stroke-linejoin:round;stroke-miterlimit:10;}
	.st36{opacity:0.3;fill:#D54848;}
	.st37{fill:#F68F6D;}
</style>
<g>
	<defs>
		<circle id="SVGID_1_" cx="70" cy="74.86" r="66.7"/>
	</defs>
	<use xlink:href="#SVGID_1_"  style="overflow:visible;fill:#CFD0D0;"/>
	<clipPath id="SVGID_2_">
		<use xlink:href="#SVGID_1_"  style="overflow:visible;"/>
	</clipPath>
	<g class="st0">
		<g>
			<g class="st7">
				<path class="st8" d="M78.63,80.62c-0.22-0.62-0.68-2.66-0.54-8.58h-8.44h-8.44c0.14,5.92-0.33,7.96-0.54,8.58
					c-0.2,0.07-8.07,3.08-8.07,3.08l17.05,6.47l18.07-5.9C87.73,84.28,78.83,80.69,78.63,80.62z"/>
				<g class="st9">
					<path class="st10" d="M84.44,55.38c0,0,2.71-1.15,4.31,0.97c1.6,2.12-1.57,9-6.94,6.75"/>
					
						<linearGradient id="SVGID_3_" gradientUnits="userSpaceOnUse" x1="-58.1662" y1="29.0665" x2="-52.6445" y2="29.0665" gradientTransform="matrix(0.9466 0.3224 -0.3224 0.9466 148.7807 50.3637)">
						<stop  offset="0" style="stop-color:#F8A88B"/>
						<stop  offset="1" style="stop-color:#F8A88B;stop-opacity:0"/>
					</linearGradient>
					<path class="st11" d="M84.44,55.38c0,0,2.71-1.15,4.31,0.97c1.6,2.12-1.57,9-6.94,6.75"/>
				</g>
				<g class="st9">
					<path class="st10" d="M54.8,55.58c0,0-2.56-1.45-4.39,0.47c-1.83,1.92,0.52,9.12,6.12,7.51"/>
					
						<linearGradient id="SVGID_4_" gradientUnits="userSpaceOnUse" x1="138.7782" y1="104.0297" x2="134.1879" y2="104.0885" gradientTransform="matrix(0.9775 -0.211 0.211 0.9775 -102.6433 -13.2151)">
						<stop  offset="0" style="stop-color:#F8A88B"/>
						<stop  offset="1" style="stop-color:#F8A88B;stop-opacity:0"/>
					</linearGradient>
					<path class="st12" d="M54.8,55.58c0,0-2.56-1.45-4.39,0.47c-1.83,1.92,0.52,9.12,6.12,7.51"/>
				</g>
				<path class="st13" d="M84.5,44.11c-2.43-10.36-14.99-8.71-14.99-8.71s-12.55-1.65-14.99,8.71c0,0-1.3,12.01,0.58,18.44
					c1.88,6.43,6.64,14.67,14.4,14.67s12.4-8.73,14.28-15.16C85.68,55.63,84.5,44.11,84.5,44.11z"/>
				<g class="st9">
					<path class="st14" d="M69.9,56.91c0,0-0.11,3.96-1.79,5.75c0,0,0.65,0.54,1.78,1.24"/>
					<path class="st15" d="M62.18,58.35c0.08,0.8,0.61,1.4,1.18,1.35s0.96-0.75,0.88-1.56s-0.61-1.4-1.18-1.35
						C62.49,56.85,62.1,57.55,62.18,58.35z"/>
					<path class="st16" d="M65.52,53.78c0,0-4.53-1.44-7.29,0.43C58.23,54.21,61.27,51.41,65.52,53.78z"/>
					<path class="st17" d="M63.45,64.02c-0.07,1.12-1.58,1.95-3.38,1.84c-1.8-0.11-3.21-1.11-3.14-2.23
						c0.07-1.13,1.58-1.95,3.38-1.84C62.11,61.9,63.52,62.9,63.45,64.02z"/>
					<path class="st15" d="M77.05,58.38c-0.06,0.8-0.57,1.42-1.14,1.38c-0.57-0.04-0.99-0.72-0.93-1.53
						c0.06-0.8,0.57-1.42,1.14-1.38C76.69,56.9,77.1,57.58,77.05,58.38z"/>
					<path class="st16" d="M74.01,53.58c0,0,4.57-1.29,7.25,0.66C81.27,54.24,78.32,51.35,74.01,53.58z"/>
					<path class="st17" d="M75.33,64.21c0.1,1.12,1.64,1.9,3.44,1.74c1.8-0.16,3.17-1.21,3.07-2.33c-0.1-1.12-1.64-1.9-3.44-1.74
						C76.6,62.04,75.22,63.08,75.33,64.21z"/>
				</g>
			</g>
			<g>
				<path class="st2" d="M45.29,103.58c0,5.21-1.24,11.57-2.76,17.44c-0.48,1.82-0.97,3.6-1.47,5.28
					c-2.12,7.09-4.23,12.46-4.23,12.46c0,10.77-5.34,43.2-5.34,43.2s-2.78,0.53-6.94,0.06c-2.49-17.56-2.51-43.87-2.51-43.87
					c0-5.58,1.39-12.95,3.09-20.04c0.37-1.51,0.75-3,1.13-4.46c1.91-7.34,3.93-13.86,4.78-17.11c1.8-6.94,5.78-8.71,5.78-8.71
					S45.29,96.76,45.29,103.58z"/>
			</g>
			<g>
				<path class="st2" d="M101.89,87.77c0,0,3.99,1.77,5.79,8.7c1.8,6.93,8.99,28.86,8.99,41.58c0,0-0.2,26.24-2.69,43.78
					c-4.15,0.47-6.63,0.04-6.63,0.04s-5.46-32.45-5.46-43.21c0,0-8.46-21.51-8.46-35.14C93.43,96.7,101.89,87.77,101.89,87.77z"/>
			</g>
			<g>
				<path class="st3" d="M93.89,155.21l-0.02,0.03c-0.45-10.15-0.98-24.87-0.55-29.5c0.91-9.65,8.59-37.97,8.59-37.97l-19.56-5.56
					l-0.38,0.26c-7.55,5.29-17.65,5.09-24.99-0.48l0,0l-20.12,5.78c0,0,7.68,28.32,8.59,37.97c0.43,4.62-0.11,19.34-0.56,29.49
					l-0.01-0.01c0,0-2.72,8.29-0.49,10.26l0,0l0,0c0,0,0,0,0,0l0,0c10.05,3.22,24.99,3.22,24.99,3.22h0.01c0,0,14.94,0,24.99-3.23
					c0,0,0,0,0,0C96.61,163.5,93.89,155.21,93.89,155.21z"/>
			</g>
			<path class="st21" d="M54.14,56.13l0.78-6.29c0,0,5.95,0.18,7.07-5.82c0.92,1.74,3.87,2.24,4.91,2.42
				c1.13,1.51,3.65,2.47,5.88,2.03c-3.72-2.38-2.96-5.12-2.96-5.12s0.68,3.23,7.7,4.73C75.44,46.3,75,44.65,75,44.65
				s2.6,3.24,8.07,3.52c1.58,3.68,1.27,8.07,1.27,8.07l1.07-7.77c0,0,4.9,1.17,0.69-2.56c-4.22-3.73-3.98-3.35-3.98-3.35l-9.94-3.17
				c0,0-0.66-1.53-7.63-0.66c-6.97,0.87-4.6-4.02-6.73,0.44c-2.13,4.45-1.74,2.9-1.74,2.9l-1.5,2.71l-1.95,2.13v2.27L54.14,56.13z"
				/>
			<path class="st22" d="M54.14,56.13l0.4-7.3c0,0,5.16,0.56,7.17-6.27c1.24,1.6,1.87,3,5.88,3.44c2.13,1.79,2.47,1.79,5.18,2.47
				c-1.5-1.11-2.94-3.68-2.61-5.9c0.86,2.13,4.34,5.18,7.35,5.52c-1.93-1.6-2.08-4.36-2.08-4.36c2.52,2.31,5.9,3.83,7.98,3.83
				c0.84,2.61,0.92,8.68,0.92,8.68s1.7-1.91,3.2-0.8c1.16-3.29,2.52-10.16,2.44-11.54c-0.07-1.38-1.21-5.3-1.21-5.3
				s1.43,1.17,3.17,0.8c-1.38-0.8-3.27-2.91-3.92-4.72c-0.65-1.81-3.2-8.64-11.55-8.42c2.76-0.22,3.38-1.09,3.38-1.09
				s-2.21,0.8-4.65-0.22c-2.43-1.02-6.82-1.96-10.13,1.02c0.36-0.91,1.09-2.54,2.47-3.19c-2.43,1.16-4.72,1.96-6.5,6.75
				c-2.4-1.2-7.04-1.2-9.87,4.14c-0.91,1.85-2.43,8.96-5.52,10.09c1.71-0.22,4.28-0.94,4.54-1.89c-0.62,2.18-2.29,5.52-2.94,5.73
				c1.6-0.11,2.83-1.92,2.83-1.92s-0.67,5.34,1.41,9.57C52.2,55.07,52.87,54.86,54.14,56.13z"/>
			<g class="st7">
				<g class="st9">
					<g>
						<path class="st23" d="M72.77,48.48c-1.73-0.07-3.46-0.74-4.84-1.85c-0.69-0.56-1.28-1.26-1.7-2.04
							c-0.46-0.76-0.65-1.65-0.76-2.5c0.33,0.8,0.65,1.59,1.15,2.26c0.47,0.68,1.02,1.31,1.68,1.82c0.64,0.53,1.35,0.97,2.1,1.35
							C71.16,47.9,71.95,48.23,72.77,48.48z"/>
					</g>
					<g>
						<path class="st23" d="M68.16,43.36c0.52,1.09,1.06,2.11,1.78,3.01c0.35,0.45,0.76,0.84,1.2,1.2c0.44,0.37,0.96,0.62,1.5,0.9
							c-0.6-0.04-1.22-0.2-1.75-0.53c-0.54-0.31-1.02-0.73-1.4-1.22c-0.38-0.49-0.69-1.03-0.92-1.6
							C68.35,44.56,68.19,43.97,68.16,43.36z"/>
					</g>
					<g>
						<path class="st23" d="M71.52,42.48c0.69,1.26,1.49,2.41,2.49,3.37c0.49,0.49,1.04,0.91,1.62,1.28
							c0.58,0.39,1.22,0.66,1.88,0.97c-0.71-0.07-1.45-0.23-2.1-0.57c-0.35-0.14-0.64-0.36-0.96-0.55
							c-0.29-0.23-0.59-0.45-0.85-0.71c-0.53-0.52-0.98-1.1-1.34-1.74C71.91,43.88,71.63,43.19,71.52,42.48z"/>
					</g>
					<g>
						<path class="st23" d="M61.71,42.57c-0.2,1.15-0.64,2.26-1.28,3.26c-0.64,1-1.53,1.87-2.6,2.44c-1.07,0.54-2.3,0.85-3.49,0.72
							l-0.45-0.02l-0.44-0.09l-0.87-0.18c-0.56-0.18-1.1-0.4-1.64-0.62c0.58,0.1,1.13,0.26,1.7,0.34l0.85,0.08l0.42,0.05l0.42-0.02
							l0.84-0.03l0.82-0.16c0.28-0.03,0.53-0.16,0.79-0.25l0.39-0.14l0.36-0.2c0.98-0.51,1.82-1.28,2.5-2.18
							C60.73,44.67,61.3,43.66,61.71,42.57z"/>
					</g>
					<g>
						<path class="st23" d="M75.43,43.73c0.67,0.62,1.4,1.15,2.15,1.62c0.76,0.47,1.55,0.87,2.38,1.17
							c0.83,0.31,1.68,0.55,2.56,0.67c0.88,0.15,1.77,0.18,2.69,0.22c-0.44,0.09-0.9,0.18-1.36,0.22c-0.46,0.02-0.92,0.06-1.38,0.01
							c-0.93-0.04-1.84-0.27-2.72-0.58c-0.87-0.32-1.7-0.78-2.43-1.34C76.59,45.17,75.93,44.5,75.43,43.73z"/>
					</g>
				</g>
			</g>
			<g class="st7">
				<path class="st24" d="M73.69,68.55c-0.1,0.34-0.31,0.78-0.6,1.26c-0.13,0.21-0.27,0.43-0.43,0.65
					c-0.85,1.12-2.09,2.19-3.47,2.15c-1.49-0.04-2.59-1.07-3.26-2.04c-0.15-0.21-0.27-0.42-0.38-0.62
					c-0.13-0.25-0.22-0.49-0.29-0.68c-0.2-0.62-0.1-0.96,0.05-1.13c0.02-0.02,0.04-0.03,0.06-0.04c0.05-0.05,0.13-0.08,0.18-0.08
					c0.01,0,0.01,0,0.02,0h0.06c2.75-0.19,6.22-0.48,7.53-0.05h0.01c0.02,0.01,0.03,0.01,0.05,0.02
					C73.6,68.11,73.78,68.29,73.69,68.55z"/>
				<path class="st25" d="M72.65,70.46c-0.84,1.12-2.09,2.2-3.47,2.15c-1.49-0.05-2.59-1.07-3.25-2.04
					C67.1,69.7,70.17,68.71,72.65,70.46z"/>
				<path class="st26" d="M73.18,67.95c-0.07,0.12-0.13,0.12-0.13,0.12c-1.17,0.67-5.67,1.26-7.36,0c-0.02-0.01-0.03-0.03-0.04-0.06
					C68.4,67.81,71.86,67.53,73.18,67.95z"/>
			</g>
			<path class="st3" d="M24.72,115.74c0,0,1.72,5.11,17.71,8.15c0.93-2.78,2.34-9.21,2.34-9.21l-7.77-26.94c0,0-4.75,1.4-7.6,12.84
				C25.33,112.74,24.72,115.74,24.72,115.74z"/>
			<path class="st3" d="M114.78,116.89c0,0-2.42,3.97-18.42,7.01c-0.93-2.78-2.16-9.21-2.16-9.21l7.77-26.94c0,0,4.75,1.4,7.6,12.84
				C113.64,112.74,114.78,116.89,114.78,116.89z"/>
		</g>
	</g>
</g>
<g>
	<defs>
		<circle id="SVGID_5_" cx="69.37" cy="44.48" r="44.91"/>
	</defs>
	<clipPath id="SVGID_6_">
		<use xlink:href="#SVGID_5_"  style="overflow:visible;"/>
	</clipPath>
	<g class="st29">
		<g>
			<path class="st30" d="M80.73,80.84c-0.26-0.74-0.8-3.15-0.64-10.17h-10h-10c0.16,7.02-0.39,9.44-0.64,10.17
				c-0.23,0.08-11.27,4.19-11.27,4.19l21.91,7.13l21.42-6.99C91.51,85.17,80.97,80.92,80.73,80.84z"/>
			<g>
				<path class="st10" d="M87.62,50.92c0,0,3.22-1.36,5.11,1.15c1.9,2.51-1.86,10.67-8.23,8.01"/>
				
					<linearGradient id="SVGID_7_" gradientUnits="userSpaceOnUse" x1="-56.3899" y1="24.4798" x2="-49.8443" y2="24.4798" gradientTransform="matrix(0.9466 0.3224 -0.3224 0.9466 148.7807 50.3637)">
					<stop  offset="0" style="stop-color:#F8A88B"/>
					<stop  offset="1" style="stop-color:#F8A88B;stop-opacity:0"/>
				</linearGradient>
				<path class="st31" d="M87.62,50.92c0,0,3.22-1.36,5.11,1.15c1.9,2.51-1.86,10.67-8.23,8.01"/>
			</g>
			<g>
				<path class="st10" d="M52.48,51.15c0,0-3.04-1.72-5.21,0.55c-2.17,2.28,0.62,10.81,7.25,8.9"/>
				
					<linearGradient id="SVGID_8_" gradientUnits="userSpaceOnUse" x1="137.3335" y1="99.8738" x2="131.8921" y2="99.9436" gradientTransform="matrix(0.9775 -0.211 0.211 0.9775 -102.6433 -13.2151)">
					<stop  offset="0" style="stop-color:#F8A88B"/>
					<stop  offset="1" style="stop-color:#F8A88B;stop-opacity:0"/>
				</linearGradient>
				<path class="st32" d="M52.48,51.15c0,0-3.04-1.72-5.21,0.55c-2.17,2.28,0.62,10.81,7.25,8.9"/>
			</g>
			<path class="st33" d="M87.69,37.56c-2.88-12.28-17.77-10.32-17.77-10.32s-14.88-1.95-17.77,10.32c0,0-1.54,14.23,0.69,21.86
				c2.23,7.63,7.87,17.39,17.08,17.39s14.7-10.34,16.93-17.97C89.09,51.21,87.69,37.56,87.69,37.56z"/>
			<g>
				<path class="st34" d="M69.17,54.06c0,0,0.57,4.66-1.07,7.06c0,0,0.86,0.52,2.3,1.14"/>
				<path class="st35" d="M65.18,49.02c0,0-5.38-1.71-8.64,0.5C56.55,49.53,60.16,46.21,65.18,49.02z"/>
				<path class="st17" d="M62.74,61.16c-0.08,1.33-1.87,2.31-4.01,2.18c-2.13-0.13-3.8-1.31-3.72-2.65
					c0.08-1.33,1.87-2.31,4.01-2.18C61.15,58.64,62.81,59.83,62.74,61.16z"/>
				<path class="st35" d="M75.26,48.78c0,0,5.41-1.53,8.6,0.79C83.85,49.57,80.36,46.14,75.26,48.78z"/>
				<path class="st17" d="M76.81,61.38c0.12,1.33,1.94,2.25,4.07,2.06c2.13-0.19,3.76-1.43,3.64-2.76
					c-0.12-1.33-1.94-2.25-4.07-2.06C78.32,58.81,76.69,60.05,76.81,61.38z"/>
			</g>
		</g>
		<path class="st36" d="M51.69,51.81l0.93-7.45c0,0,7.06,0.21,8.38-6.9c1.09,2.07,4.59,2.65,5.82,2.87
			c1.34,1.79,4.33,2.93,6.97,2.41c-4.41-2.82-3.51-6.07-3.51-6.07s0.81,3.83,9.13,5.61c-2.46-2.12-2.98-4.07-2.98-4.07
			s3.08,3.84,9.57,4.17c1.87,4.37,1.5,9.57,1.5,9.57l1.27-9.21c0,0,5.81,1.39,0.81-3.03c-5-4.42-4.71-3.97-4.71-3.97l-11.78-3.75
			c0,0-0.78-1.81-9.04-0.78c-8.26,1.03-5.45-4.76-7.97,0.52C53.54,37,54,35.16,54,35.16l-1.78,3.21L49.9,40.9v2.7L51.69,51.81z"/>
		<path class="st19" d="M51.69,51.81l0.48-8.65c0,0,6.12,0.66,8.5-7.43c1.47,1.89,2.21,3.56,6.97,4.07
			c2.52,2.12,2.93,2.12,6.14,2.93c-1.78-1.32-3.48-4.36-3.09-7c1.03,2.52,5.15,6.14,8.71,6.54c-2.29-1.89-2.47-5.16-2.47-5.16
			c2.98,2.74,6.99,4.54,9.46,4.54c1,3.09,1.09,10.29,1.09,10.29s2.02-2.27,3.79-0.95c1.38-3.9,2.98-12.05,2.9-13.68
			c-0.09-1.63-1.43-6.28-1.43-6.28s1.69,1.38,3.76,0.95c-1.63-0.95-3.87-3.45-4.65-5.6c-0.77-2.15-3.8-10.24-13.69-9.98
			c3.27-0.26,4.01-1.29,4.01-1.29s-2.62,0.95-5.51-0.26c-2.88-1.2-8.09-2.32-12,1.2c0.43-1.08,1.29-3.01,2.93-3.79
			c-2.88,1.38-5.59,2.32-7.7,8c-2.84-1.42-8.35-1.42-11.7,4.9c-1.08,2.19-2.88,10.63-6.54,11.96c2.02-0.26,5.08-1.12,5.38-2.24
			c-0.73,2.58-2.71,6.54-3.48,6.8c1.89-0.13,3.36-2.28,3.36-2.28s-0.79,6.33,1.67,11.34C49.39,50.55,50.2,50.3,51.69,51.81z"/>
		<g>
			<g>
				<g>
					<path class="st23" d="M73.79,42.73c-2.06-0.08-4.1-0.87-5.74-2.2c-0.82-0.66-1.51-1.49-2.01-2.41
						c-0.54-0.91-0.77-1.95-0.9-2.96c0.39,0.95,0.77,1.88,1.36,2.68c0.56,0.81,1.21,1.56,1.99,2.16c0.76,0.63,1.6,1.15,2.49,1.6
						C71.87,42.04,72.81,42.44,73.79,42.73z"/>
				</g>
				<g>
					<path class="st23" d="M68.32,36.67c0.61,1.29,1.26,2.51,2.11,3.57c0.41,0.54,0.9,1,1.43,1.43c0.53,0.43,1.14,0.74,1.78,1.07
						c-0.71-0.05-1.45-0.24-2.08-0.63c-0.64-0.37-1.21-0.87-1.66-1.44c-0.45-0.58-0.82-1.22-1.09-1.89
						C68.54,38.09,68.35,37.39,68.32,36.67z"/>
				</g>
				<g>
					<path class="st23" d="M72.3,35.62c0.82,1.49,1.77,2.86,2.95,3.99c0.58,0.58,1.23,1.08,1.92,1.52c0.69,0.46,1.45,0.78,2.23,1.15
						c-0.85-0.08-1.71-0.28-2.49-0.68c-0.41-0.16-0.76-0.43-1.14-0.65c-0.34-0.27-0.7-0.53-1.01-0.84
						c-0.62-0.61-1.17-1.31-1.59-2.07C72.77,37.28,72.44,36.47,72.3,35.62z"/>
				</g>
				<g>
					<path class="st23" d="M60.67,35.73c-0.23,1.36-0.76,2.68-1.52,3.87c-0.76,1.18-1.81,2.22-3.08,2.89
						c-1.27,0.65-2.72,1.01-4.14,0.86l-0.53-0.02l-0.52-0.1l-1.03-0.22c-0.66-0.22-1.31-0.47-1.94-0.74
						c0.69,0.11,1.34,0.3,2.01,0.41l1.01,0.1l0.5,0.05l0.5-0.02l1-0.04l0.97-0.19c0.33-0.03,0.63-0.19,0.94-0.29l0.46-0.17
						l0.43-0.24c1.17-0.6,2.16-1.52,2.97-2.59C59.51,38.22,60.19,37.02,60.67,35.73z"/>
				</g>
				<g>
					<path class="st23" d="M76.94,37.11c0.79,0.74,1.66,1.36,2.55,1.92c0.9,0.55,1.84,1.03,2.82,1.39c0.98,0.37,1.99,0.65,3.04,0.8
						c1.04,0.18,2.1,0.22,3.19,0.26c-0.53,0.11-1.06,0.21-1.61,0.27c-0.54,0.03-1.09,0.07-1.64,0.01c-1.1-0.05-2.18-0.31-3.22-0.69
						c-1.03-0.38-2.01-0.92-2.88-1.59C78.31,38.81,77.53,38.02,76.94,37.11z"/>
				</g>
			</g>
		</g>
		<g>
			<g>
				<path class="st15" d="M76.94,54.94c0.6-0.71,1.49-1.44,2.37-1.77c1.41-0.53,2.1,0.42,2.43,1.63c0.08,0.3,0.56,0.32,0.63,0
					c0.26-1.23-0.8-2.39-1.99-2.55c-1.52-0.21-3.13,1.16-3.98,2.28C76.18,54.84,76.7,55.24,76.94,54.94L76.94,54.94z"/>
			</g>
		</g>
		<g>
			<g>
				<path class="st15" d="M64.26,54.53c-0.85-1.12-2.46-2.49-3.98-2.28c-1.19,0.17-2.25,1.32-1.99,2.55c0.07,0.32,0.55,0.3,0.63,0
					c0.33-1.22,1.02-2.16,2.43-1.63c0.88,0.33,1.78,1.06,2.37,1.77C63.97,55.23,64.49,54.84,64.26,54.53L64.26,54.53z"/>
			</g>
		</g>
		<g>
			<g>
				<path class="st37" d="M65.52,65.85c1.1,0.96,2.38,1.77,3.9,1.64c1.39-0.12,3.18-0.97,4.03-2.09c0.14-0.18-0.17-0.36-0.3-0.18
					c-0.69,0.92-2.24,1.64-3.33,1.87c-1.54,0.32-2.99-0.45-4.15-1.38C65.56,65.63,65.42,65.76,65.52,65.85L65.52,65.85z"/>
			</g>
		</g>
	</g>
</g>
</svg>
