<?xml version="1.0" encoding="utf-8"?>
<!-- Generator: Adobe Illustrator 23.0.3, SVG Export Plug-In . SVG Version: 6.00 Build 0)  -->
<svg version="1.1" id="Layer_1" xmlns="http://www.w3.org/2000/svg" xmlns:xlink="http://www.w3.org/1999/xlink" x="0px" y="0px"
	 viewBox="0 0 140 150" style="enable-background:new 0 0 140 150;" xml:space="preserve">
<style type="text/css">
	.st0{clip-path:url(#SVGID_2_);}
	.st1{fill:#73584E;}
	.st2{fill:#FCC5A7;}
	.st3{fill:#F7FCFE;}
	.st4{fill:#C54527;}
	.st5{fill:#ECEEEE;}
	.st6{fill:#D3D3D3;}
	.st7{display:none;}
	.st8{display:inline;fill:#FAB294;}
	.st9{display:inline;}
	.st10{fill:#FCCAAB;}
	.st11{fill:url(#SVGID_3_);}
	.st12{fill:url(#SVGID_4_);}
	.st13{display:inline;fill:#FAC0A1;}
	.st14{fill:none;stroke:#F68F6D;stroke-width:0.5732;stroke-linecap:round;stroke-linejoin:round;stroke-miterlimit:10;}
	.st15{fill:#383938;}
	.st16{fill:none;stroke:#383938;stroke-width:0.8779;stroke-linecap:round;stroke-linejoin:round;stroke-miterlimit:10;}
	.st17{fill:#FAB491;}
	.st18{fill:#F79D80;}
	.st19{fill:#193145;}
	.st20{fill:#10293B;}
	.st21{fill:#FFFFFF;}
	.st22{display:none;opacity:0.3;fill:#D54848;}
	.st23{display:none;fill:#193145;}
	.st24{fill:#224157;}
	.st25{display:inline;fill:#832721;}
	.st26{display:inline;fill:#BA3B3B;}
	.st27{display:inline;fill:#FFFFFF;}
	.st28{opacity:0.45;}
	.st29{fill:#254A64;}
	.st30{clip-path:url(#SVGID_6_);}
	.st31{fill:#FAB294;}
	.st32{fill:url(#SVGID_7_);}
	.st33{fill:url(#SVGID_8_);}
	.st34{fill:#FAC0A1;}
	.st35{fill:none;stroke:#F68F6D;stroke-width:0.6795;stroke-linecap:round;stroke-linejoin:round;stroke-miterlimit:10;}
	.st36{fill:none;stroke:#383938;stroke-width:1.0407;stroke-linecap:round;stroke-linejoin:round;stroke-miterlimit:10;}
	.st37{opacity:0.3;fill:#D54848;}
	.st38{fill:#832721;}
	.st39{fill:#BA3B3B;}
</style>
<g>
	<defs>
		<circle id="SVGID_1_" cx="69.52" cy="73.76" r="67.48"/>
	</defs>
	<use xlink:href="#SVGID_1_"  style="overflow:visible;fill:#CECECD;"/>
	<clipPath id="SVGID_2_">
		<use xlink:href="#SVGID_1_"  style="overflow:visible;"/>
	</clipPath>
	<g class="st0">
		<ellipse class="st1" cx="67.59" cy="343.82" rx="59.56" ry="5.85"/>
		<g>
			<g>
				<g>
					<path class="st2" d="M44.61,325.62l0.38,9c0,0,4.88,2.83,8.46-0.04c0,0,0.8-7.97,1.14-13.27"/>
				</g>
				<g>
					<path class="st3" d="M54.88,343.05c-1.03,0.03-2.29,0.03-3.68,0.03c-9.39,0.1-24.98-0.04-24.98-0.04s-1.21-5.21,5.38-4.77
						c2.47,0.14,4.94-0.53,7.12-1.71c3.65-2.03,5.65-4.1,6.06-4.36c0.53-0.38,1.45,3.88,8.48,1.91c0.21-0.03,0.41,0.06,0.47,0.24
						c0.5,1.15,0.86,1.94,1.06,2.79C55.14,338.43,55.18,339.93,54.88,343.05z"/>
					<path class="st4" d="M38.56,338.95l-1.32-1.88c0-0.02,0.01-0.04,0.01-0.06l0.32-0.23c0.02,0,0.04,0.01,0.06,0.01l1.32,1.88
						c0,0.02-0.01,0.04-0.01,0.06l-0.32,0.23C38.6,338.96,38.58,338.95,38.56,338.95z"/>
					<path class="st4" d="M39.46,338.43l-1.32-1.88c0-0.02,0.01-0.04,0.01-0.06l0.32-0.23c0.02,0,0.04,0.01,0.06,0.01l1.32,1.88
						c0,0.02-0.01,0.04-0.01,0.06l-0.32,0.23C39.5,338.44,39.49,338.44,39.46,338.43z"/>
					<path class="st4" d="M40.25,337.94l-1.32-1.88c0-0.02,0.01-0.04,0.01-0.06l0.32-0.23c0.02,0,0.04,0.01,0.06,0.01l1.32,1.88
						c0,0.02-0.01,0.04-0.01,0.06l-0.32,0.23C40.29,337.95,40.28,337.95,40.25,337.94z"/>
					<path class="st4" d="M41.01,337.41l-1.32-1.88c0-0.02,0.01-0.04,0.01-0.06l0.32-0.23c0.02,0,0.04,0.01,0.06,0.01l1.32,1.88
						c0,0.02-0.01,0.04-0.01,0.06l-0.32,0.23C41.05,337.42,41.04,337.41,41.01,337.41z"/>
					<path class="st4" d="M41.8,336.91l-1.32-1.88c0-0.02,0.01-0.04,0.01-0.06l0.32-0.23c0.02,0,0.04,0.01,0.06,0.01l1.32,1.88
						c0,0.02-0.01,0.04-0.01,0.06l-0.32,0.23C41.84,336.92,41.83,336.92,41.8,336.91z"/>
					<path class="st4" d="M42.62,336.34l-1.32-1.88c0-0.02,0.01-0.04,0.01-0.06l0.32-0.23c0.02,0,0.04,0.01,0.06,0.01l1.32,1.88
						c0,0.02-0.01,0.04-0.01,0.06l-0.32,0.23C42.66,336.35,42.65,336.34,42.62,336.34z"/>
					<path class="st4" d="M43.32,335.85L42,333.97c0-0.02,0.01-0.04,0.01-0.06l0.32-0.23c0.02,0,0.04,0.01,0.06,0.01l1.32,1.88
						c0,0.02-0.01,0.04-0.01,0.06l-0.32,0.23C43.36,335.85,43.35,335.85,43.32,335.85z"/>
					<path class="st5" d="M54.88,343.05c-1.03,0.03-2.29,0.03-3.68,0.03c-0.21,0,0.2-1.78,0.26-1.97c0.29-0.92,0.77-1.78,1.43-2.49
						c0.17-0.19,1.9-1.49,1.9-1.48C55.14,338.43,55.18,339.93,54.88,343.05z"/>
					<path class="st6" d="M54.85,343.93l-28.56,0.03c-0.25,0-0.45-0.2-0.45-0.45l0-0.02c0-0.25,0.2-0.45,0.45-0.45l28.56-0.03
						c0.25,0,0.45,0.2,0.45,0.45l0,0.02C55.3,343.73,55.1,343.93,54.85,343.93z"/>
				</g>
			</g>
			<g>
				<g>
					<path class="st2" d="M92.65,325.62l-0.38,9c0,0-4.88,2.83-8.46-0.04c0,0-0.8-7.97-1.14-13.27"/>
				</g>
				<g>
					<path class="st3" d="M82.37,343.05c1.03,0.03,2.29,0.03,3.68,0.03c9.39,0.1,24.98-0.04,24.98-0.04s1.21-5.21-5.38-4.77
						c-2.47,0.14-4.94-0.53-7.12-1.71c-3.65-2.03-5.65-4.1-6.06-4.36c-0.53-0.38-1.45,3.88-8.48,1.91
						c-0.21-0.03-0.41,0.06-0.47,0.24c-0.5,1.15-0.86,1.94-1.06,2.79C82.11,338.43,82.08,339.93,82.37,343.05z"/>
					<path class="st4" d="M98.7,338.95l1.32-1.88c0-0.02-0.01-0.04-0.01-0.06l-0.32-0.23c-0.02,0-0.04,0.01-0.06,0.01l-1.32,1.88
						c0,0.02,0.01,0.04,0.01,0.06l0.32,0.23C98.66,338.96,98.67,338.95,98.7,338.95z"/>
					<path class="st4" d="M97.79,338.43l1.32-1.88c0-0.02-0.01-0.04-0.01-0.06l-0.32-0.23c-0.02,0-0.04,0.01-0.06,0.01l-1.32,1.88
						c0,0.02,0.01,0.04,0.01,0.06l0.32,0.23C97.75,338.44,97.77,338.44,97.79,338.43z"/>
					<path class="st4" d="M97,337.94l1.32-1.88c0-0.02-0.01-0.04-0.01-0.06l-0.32-0.23c-0.02,0-0.04,0.01-0.06,0.01l-1.32,1.88
						c0,0.02,0.01,0.04,0.01,0.06l0.32,0.23C96.97,337.95,96.98,337.95,97,337.94z"/>
					<path class="st4" d="M96.24,337.41l1.32-1.88c0.01-0.02,0.01-0.05-0.01-0.06l-0.32-0.23c-0.02,0-0.04,0.01-0.06,0.01
						l-1.32,1.88c0,0.02,0.01,0.04,0.01,0.06l0.32,0.23C96.2,337.42,96.22,337.41,96.24,337.41z"/>
					<path class="st4" d="M95.45,336.91l1.32-1.88c0-0.02-0.01-0.04-0.01-0.06l-0.32-0.23c-0.02,0-0.04,0.01-0.06,0.01l-1.32,1.88
						c0,0.02,0.01,0.04,0.01,0.06l0.32,0.23C95.41,336.92,95.43,336.92,95.45,336.91z"/>
					<path class="st4" d="M94.63,336.34l1.32-1.88c0-0.02-0.01-0.04-0.01-0.06l-0.32-0.23c-0.02,0-0.04,0.01-0.06,0.01l-1.32,1.88
						c0,0.02,0.01,0.04,0.01,0.06l0.32,0.23C94.59,336.35,94.61,336.34,94.63,336.34z"/>
					<path class="st4" d="M93.93,335.85l1.32-1.88c0-0.02-0.01-0.04-0.01-0.06l-0.32-0.23c-0.02,0-0.04,0.01-0.06,0.01l-1.32,1.88
						c0,0.02,0.01,0.04,0.01,0.06l0.32,0.23C93.89,335.85,93.91,335.85,93.93,335.85z"/>
					<path class="st5" d="M82.37,343.05c1.03,0.03,2.29,0.03,3.68,0.03c0.21,0-0.2-1.78-0.26-1.97c-0.29-0.92-0.77-1.78-1.43-2.49
						c-0.17-0.19-1.9-1.49-1.9-1.48C82.11,338.43,82.08,339.93,82.37,343.05z"/>
					<path class="st6" d="M82.4,343.93l28.56,0.03c0.25,0,0.45-0.2,0.45-0.45l0-0.02c0-0.25-0.2-0.45-0.45-0.45l-28.56-0.03
						c-0.25,0-0.45,0.2-0.45,0.45l0,0.02C81.95,343.73,82.15,343.93,82.4,343.93z"/>
				</g>
			</g>
			<g class="st7">
				<path class="st8" d="M77.72,80.61c-0.22-0.64-0.7-2.73-0.56-8.83h-8.68h-8.68c0.14,6.09-0.33,8.19-0.56,8.83
					c-0.2,0.07-8.3,3.17-8.3,3.17l17.54,6.66l18.59-6.07C87.08,84.37,77.93,80.68,77.72,80.61z"/>
				<g class="st9">
					<path class="st10" d="M83.7,54.64c0,0,2.79-1.18,4.44,1c1.65,2.18-1.62,9.26-7.14,6.95"/>
					
						<linearGradient id="SVGID_3_" gradientUnits="userSpaceOnUse" x1="-59.0751" y1="28.7085" x2="-53.3947" y2="28.7085" gradientTransform="matrix(0.9466 0.3224 -0.3224 0.9466 148.7807 50.3637)">
						<stop  offset="0" style="stop-color:#F8A88B"/>
						<stop  offset="1" style="stop-color:#F8A88B;stop-opacity:0"/>
					</linearGradient>
					<path class="st11" d="M83.7,54.64c0,0,2.79-1.18,4.44,1c1.65,2.18-1.62,9.26-7.14,6.95"/>
				</g>
				<g class="st9">
					<path class="st10" d="M53.2,54.85c0,0-2.64-1.5-4.52,0.48c-1.89,1.98,0.54,9.38,6.29,7.73"/>
					
						<linearGradient id="SVGID_4_" gradientUnits="userSpaceOnUse" x1="137.3573" y1="103.0783" x2="132.6351" y2="103.1389" gradientTransform="matrix(0.9775 -0.211 0.211 0.9775 -102.6433 -13.2151)">
						<stop  offset="0" style="stop-color:#F8A88B"/>
						<stop  offset="1" style="stop-color:#F8A88B;stop-opacity:0"/>
					</linearGradient>
					<path class="st12" d="M53.2,54.85c0,0-2.64-1.5-4.52,0.48c-1.89,1.98,0.54,9.38,6.29,7.73"/>
				</g>
				<path class="st13" d="M83.76,43.05c-2.5-10.66-15.42-8.96-15.42-8.96s-12.92-1.7-15.42,8.96c0,0-1.34,12.35,0.6,18.97
					c1.94,6.62,6.83,15.09,14.82,15.09s12.75-8.98,14.69-15.6C84.97,54.9,83.76,43.05,83.76,43.05z"/>
				<g class="st9">
					<path class="st14" d="M68.74,56.21c0,0-0.12,4.07-1.84,5.91c0,0,0.67,0.56,1.83,1.28"/>
					<path class="st15" d="M60.8,57.69c0.08,0.82,0.63,1.44,1.21,1.38s0.99-0.78,0.91-1.6c-0.08-0.82-0.63-1.44-1.21-1.38
						S60.71,56.87,60.8,57.69z"/>
					<path class="st16" d="M64.23,53c0,0-4.66-1.48-7.5,0.44C56.73,53.43,59.87,50.56,64.23,53z"/>
					<path class="st17" d="M62.1,63.53c-0.07,1.16-1.63,2.01-3.48,1.9c-1.85-0.11-3.3-1.14-3.23-2.3c0.07-1.16,1.63-2.01,3.48-1.9
						C60.73,61.35,62.17,62.37,62.1,63.53z"/>
					<path class="st15" d="M76.09,57.73c-0.06,0.83-0.58,1.46-1.17,1.42c-0.59-0.04-1.02-0.75-0.96-1.57
						c0.06-0.83,0.58-1.46,1.17-1.42C75.72,56.2,76.15,56.91,76.09,57.73z"/>
					<path class="st16" d="M72.97,52.79c0,0,4.7-1.33,7.46,0.68C80.43,53.47,77.4,50.5,72.97,52.79z"/>
					<path class="st17" d="M74.32,63.72c0.1,1.15,1.69,1.95,3.54,1.79c1.85-0.17,3.26-1.24,3.16-2.39c-0.1-1.15-1.69-1.95-3.54-1.79
						C75.63,61.49,74.22,62.56,74.32,63.72z"/>
				</g>
			</g>
			<g>
				<path class="st18" d="M26.34,197.89c0,0-1.28,2.64-1.28,3.49c0,0.85,0.24,3.4,0.64,4.09c0.4,0.68,2.82,3.23,3.06,3.7
					c0.24,0.47,0.42,1.55,0,1.66c-0.61,0.16-4.32-3.06-4.32-3.06l-2.85-5.45c0,0,0.38-3.36,0.47-3.58c0.09-0.21,1.99-2.89,1.99-2.89
					"/>
				<path class="st2" d="M21.58,193.47c-0.77,3.05-1.55,7.22-1.32,8.47c0.23,1.25,2.48,5.42,2.48,5.42s4.1,3.05,4.64,3.12
					c0.54,0.07,0.7-1.15,0-1.91c-0.7-0.76-2.63-2.43-2.82-2.88c-0.19-0.45-0.54-3.71-0.52-4.3c0.02-0.59,1.57-2.81,2.53-2.74
					s1.51,1.63,1.51,2.25c0,0.62,0.23,2.08,0.58,2.57c0.35,0.49,1.24,0.69,1.59,0.31c0.35-0.38,0.62-3.85,0.62-4.55
					s-2.24-5.14-2.44-6.11c-0.19-0.97,0.85-8.82,0.85-8.82l-7.2-0.9C22.09,183.4,22.36,190.41,21.58,193.47z"/>
				<path class="st2" d="M43.42,104.22c0,5.36-1.27,11.9-2.84,17.94c-0.49,1.87-1,3.7-1.51,5.43c-2.18,7.29-4.35,12.82-4.35,12.82
					c0,11.08-5.49,44.44-5.49,44.44s-2.86,0.54-7.14,0.07c-2.56-18.06-2.58-45.13-2.58-45.13c0-5.74,1.43-13.33,3.18-20.62
					c0.38-1.56,0.77-3.09,1.16-4.59c1.97-7.55,4.05-14.26,4.92-17.6c1.85-7.14,5.95-8.96,5.95-8.96S43.42,97.21,43.42,104.22z"/>
			</g>
			<g>
				<path class="st18" d="M109.85,195.58c0,0,1.28,2.64,1.28,3.49c0,0.85-0.24,3.4-0.64,4.09c-0.4,0.68-2.82,3.23-3.06,3.7
					c-0.24,0.47-0.41,1.55,0,1.66c0.61,0.16,4.32-3.06,4.32-3.06l2.85-5.45c0,0-0.38-3.36-0.47-3.58c-0.09-0.21-1.99-2.89-1.99-2.89
					"/>
				<path class="st2" d="M114.61,191.15c0.77,3.05,1.55,7.22,1.32,8.47c-0.23,1.25-2.48,5.42-2.48,5.42s-4.1,3.05-4.64,3.12
					s-0.7-1.15,0-1.91c0.7-0.76,2.63-2.43,2.82-2.88c0.19-0.45,0.54-3.71,0.52-4.3c-0.02-0.59-1.57-2.81-2.53-2.74
					s-1.51,1.63-1.51,2.25c0,0.62-0.23,2.08-0.58,2.57c-0.35,0.49-1.24,0.69-1.59,0.31c-0.35-0.38-0.62-3.85-0.62-4.55
					s2.24-5.14,2.44-6.11c0.19-0.97-0.85-8.82-0.85-8.82l7.2-0.9C114.11,181.09,113.84,188.1,114.61,191.15z"/>
				<path class="st2" d="M101.65,87.96c0,0,4.11,1.83,5.96,8.95c1.85,7.13,9.25,29.69,9.25,42.78c0,0-0.21,27-2.77,45.03
					c-4.27,0.48-6.82,0.04-6.82,0.04s-5.62-33.39-5.62-44.45c0,0-8.7-22.13-8.7-36.15C92.94,97.15,101.65,87.96,101.65,87.96z"/>
			</g>
			<g>
				<g>
					<g>
						<path class="st19" d="M97.82,217.87c-0.01-0.01-0.01-0.01-0.01-0.01l-2.47,41.6c0,0,0.28,16.54-0.07,35.75
							c0,0.14-0.01,0.29-0.01,0.45v0.32c-0.38,19.12-1.95,33.25-1.95,33.25H82.04c0,0-1.98-17.36-4.45-39.73
							c-0.01-0.14-0.02-0.29-0.04-0.46c-0.04-0.38-0.09-0.77-0.13-1.16c-0.03-0.36-0.08-0.72-0.11-1.08
							c-1.08-11.16-1.33-25.47-1.33-25.47c-2.43-14.07-5.7-45.19-7.03-58.15h-1.16c-1.33,12.96-4.61,44.08-7.03,58.15
							c0,0-0.26,14.31-1.33,25.47c-0.03,0.36-0.09,0.72-0.12,1.08c-0.04,0.39-0.08,0.78-0.12,1.16c-0.02,0.16-0.03,0.32-0.04,0.46
							c-2.47,22.37-4.45,39.73-4.45,39.73H43.43c0,0-1.57-14.13-1.96-33.25v-0.32c0-0.15-0.01-0.3-0.01-0.45
							c-0.35-19.21-0.05-35.75-0.05-35.75l-2.48-41.6c0,0,0,0-0.01,0.01c-0.12-11.71-0.15-20.33-0.02-22.97
							c0.42-8.06,2.26-18.29,3.31-23.55c0.2-1,0.36-1.82,0.49-2.4c0.14-0.7,0.23-1.08,0.23-1.08h50.9c0,0,0.27,1.25,0.69,3.31
							c1.02,5.21,2.92,15.58,3.34,23.73C97.98,197.54,97.95,206.16,97.82,217.87z"/>
					</g>
				</g>
			</g>
			<path class="st20" d="M94.51,171.18c-25.78,5.83-45.75-0.04-51.82-2.23c0.14-0.7,0.23-1.08,0.23-1.08h50.9
				C93.82,167.87,94.1,169.12,94.51,171.18z"/>
			<g>
				<path class="st21" d="M93.41,157.34l-0.02,0.03c-0.47-10.45-1.01-25.59-0.57-30.35c0.93-9.93,8.83-39.06,8.83-39.06l-20.12-5.72
					l-0.39,0.27c-7.77,5.44-18.16,5.24-25.71-0.5l0,0l-20.7,5.94c0,0,7.9,29.13,8.83,39.06c0.44,4.76-0.11,19.89-0.58,30.34
					l-0.01-0.01c0,0-2.8,8.53-0.51,10.55l0,0l0,0c0,0,0,0,0,0l0,0c10.34,3.31,25.71,3.31,25.71,3.31h0.01c0,0,15.37,0,25.71-3.32
					c0,0,0,0,0,0C96.22,165.87,93.41,157.34,93.41,157.34z"/>
			</g>
			<path class="st22" d="M52.52,55.42l0.8-6.47c0,0,6.12,0.18,7.27-5.99c0.95,1.79,3.98,2.3,5.05,2.49
				c1.17,1.55,3.76,2.54,6.05,2.09c-3.83-2.45-3.05-5.26-3.05-5.26s0.7,3.32,7.92,4.87c-2.14-1.84-2.58-3.53-2.58-3.53
				s2.67,3.34,8.3,3.62c1.62,3.79,1.3,8.3,1.3,8.3l1.1-7.99c0,0,5.05,1.21,0.71-2.63c-4.34-3.84-4.09-3.44-4.09-3.44l-10.23-3.26
				c0,0-0.68-1.57-7.85-0.68c-7.17,0.9-4.73-4.13-6.92,0.45c-2.19,4.58-1.79,2.99-1.79,2.99l-1.54,2.79l-2.01,2.19v2.34L52.52,55.42
				z"/>
			<path class="st23" d="M52.52,55.42l0.41-7.51c0,0,5.31,0.57,7.38-6.45c1.27,1.64,1.92,3.09,6.05,3.53
				c2.19,1.84,2.54,1.84,5.33,2.54c-1.54-1.15-3.02-3.78-2.68-6.07c0.89,2.19,4.47,5.33,7.56,5.68c-1.99-1.64-2.14-4.48-2.14-4.48
				c2.59,2.38,6.07,3.94,8.21,3.94c0.86,2.68,0.95,8.93,0.95,8.93s1.75-1.97,3.29-0.82c1.19-3.39,2.59-10.45,2.51-11.87
				c-0.07-1.42-1.24-5.45-1.24-5.45s1.47,1.2,3.26,0.82c-1.42-0.82-3.36-2.99-4.03-4.86c-0.67-1.87-3.29-8.89-11.88-8.66
				c2.84-0.22,3.48-1.12,3.48-1.12s-2.28,0.82-4.78-0.22c-2.5-1.05-7.02-2.02-10.42,1.05c0.37-0.93,1.12-2.61,2.54-3.29
				c-2.5,1.19-4.85,2.02-6.68,6.94c-2.46-1.23-7.24-1.23-10.16,4.26c-0.93,1.9-2.5,9.22-5.68,10.38c1.75-0.22,4.41-0.97,4.67-1.94
				c-0.63,2.24-2.35,5.68-3.02,5.9c1.64-0.11,2.91-1.98,2.91-1.98s-0.69,5.49,1.45,9.84C50.53,54.32,51.22,54.11,52.52,55.42z"/>
			<g class="st7">
				<g class="st9">
					<g>
						<path class="st24" d="M71.7,47.54c-1.78-0.07-3.56-0.76-4.98-1.91c-0.71-0.57-1.31-1.29-1.75-2.09
							c-0.47-0.79-0.67-1.7-0.78-2.57c0.34,0.83,0.67,1.63,1.18,2.33c0.48,0.7,1.05,1.35,1.73,1.88c0.66,0.54,1.39,1,2.16,1.39
							C70.04,46.94,70.84,47.28,71.7,47.54z"/>
					</g>
					<g>
						<path class="st24" d="M66.95,42.27c0.53,1.12,1.09,2.18,1.83,3.1c0.36,0.47,0.78,0.87,1.24,1.24
							c0.46,0.38,0.99,0.64,1.54,0.93c-0.62-0.04-1.25-0.21-1.8-0.54c-0.55-0.32-1.05-0.75-1.44-1.25c-0.39-0.5-0.71-1.06-0.94-1.64
							C67.14,43.51,66.98,42.9,66.95,42.27z"/>
					</g>
					<g>
						<path class="st24" d="M70.4,41.37c0.71,1.3,1.54,2.48,2.56,3.46c0.5,0.5,1.06,0.94,1.67,1.32c0.6,0.4,1.26,0.68,1.94,0.99
							c-0.74-0.07-1.49-0.24-2.16-0.59c-0.36-0.14-0.66-0.37-0.99-0.57c-0.3-0.23-0.6-0.46-0.87-0.73
							c-0.54-0.53-1.01-1.13-1.38-1.79C70.81,42.81,70.52,42.1,70.4,41.37z"/>
					</g>
					<g>
						<path class="st24" d="M60.32,41.46c-0.2,1.18-0.66,2.33-1.32,3.36c-0.66,1.03-1.57,1.92-2.67,2.51
							c-1.1,0.56-2.36,0.88-3.59,0.74l-0.46-0.02l-0.45-0.09l-0.89-0.19c-0.57-0.19-1.14-0.41-1.69-0.64
							c0.6,0.1,1.17,0.26,1.75,0.35l0.88,0.08l0.43,0.05l0.44-0.02l0.87-0.04l0.84-0.17c0.29-0.03,0.54-0.17,0.82-0.25l0.4-0.14
							l0.37-0.21c1.01-0.52,1.87-1.32,2.57-2.25C59.31,43.62,59.89,42.58,60.32,41.46z"/>
					</g>
					<g>
						<path class="st24" d="M74.43,42.66c0.69,0.64,1.44,1.18,2.21,1.67c0.78,0.48,1.59,0.9,2.45,1.2c0.85,0.32,1.73,0.56,2.63,0.69
							c0.9,0.16,1.82,0.19,2.77,0.22c-0.46,0.09-0.92,0.19-1.39,0.23c-0.47,0.02-0.95,0.06-1.42,0.01c-0.95-0.04-1.89-0.27-2.79-0.6
							c-0.9-0.33-1.75-0.8-2.5-1.38C75.62,44.14,74.94,43.45,74.43,42.66z"/>
					</g>
				</g>
			</g>
			<g class="st7">
				<path class="st25" d="M72.64,68.19c-0.1,0.35-0.32,0.81-0.62,1.29c-0.13,0.22-0.28,0.45-0.45,0.66
					c-0.87,1.15-2.15,2.25-3.57,2.21c-1.53-0.04-2.67-1.1-3.35-2.1c-0.15-0.22-0.28-0.44-0.39-0.64c-0.13-0.26-0.23-0.5-0.29-0.7
					c-0.21-0.64-0.1-0.99,0.05-1.16c0.02-0.02,0.04-0.03,0.07-0.04c0.05-0.05,0.13-0.09,0.18-0.09c0.01,0,0.01,0,0.02,0h0.07
					c2.83-0.2,6.4-0.49,7.75-0.05h0.01c0.02,0.01,0.03,0.01,0.05,0.02C72.54,67.74,72.73,67.92,72.64,68.19z"/>
				<path class="st26" d="M71.57,70.15c-0.87,1.16-2.15,2.26-3.57,2.21c-1.53-0.05-2.66-1.1-3.35-2.1
					C65.86,69.37,69.02,68.36,71.57,70.15z"/>
				<path class="st27" d="M72.11,67.57c-0.08,0.12-0.13,0.12-0.13,0.12c-1.21,0.69-5.83,1.29-7.57,0c-0.02-0.01-0.03-0.03-0.04-0.07
					C67.19,67.43,70.76,67.14,72.11,67.57z"/>
			</g>
			<g class="st28">
				<g>
					<path class="st29" d="M86.8,173.69c-1.07,6.97,3.16,13.2,7.4,18.29c0.18,0.22,0.48-0.09,0.31-0.31
						c-4.25-5.32-7.94-10.83-7.38-17.94C87.14,173.55,86.82,173.51,86.8,173.69L86.8,173.69z"/>
				</g>
			</g>
			<g class="st28">
				<g>
					<path class="st29" d="M50.91,174.29c-0.33,7.06-5.67,11.82-10.72,16.05c-0.23,0.19,0.1,0.52,0.33,0.33
						c5.17-4.3,10.62-9.17,10.85-16.38C51.39,173.99,50.92,173.99,50.91,174.29L50.91,174.29z"/>
				</g>
			</g>
			<g class="st28">
				<g>
					<path class="st29" d="M67.13,171.2c-0.69,3.82-0.18,8.15-0.16,12.03c0.02,4.32-0.08,8.68,0.14,12.99c0.01,0.2,0.3,0.2,0.31,0
						c0.12-4.32-0.06-8.67-0.08-12.99c-0.02-3.9,0.49-8.19-0.19-12.03C67.15,171.19,67.14,171.19,67.13,171.2L67.13,171.2z"/>
				</g>
			</g>
			<g class="st28">
				<g>
					<path class="st29" d="M67.6,193.11c0.95-0.59,2.6-1.36,3.16-2.39c0.73-1.35,0.38-3.9,0.46-5.38c0.27-4.57,0.36-9.15,0.32-13.73
						c0-0.21-0.33-0.21-0.33,0c0.03,3.68-0.02,7.35-0.19,11.02c-0.08,1.8-0.04,3.71-0.31,5.5c-0.37,2.5-1.48,3.41-3.21,4.86
						C67.45,193.05,67.53,193.16,67.6,193.11L67.6,193.11z"/>
				</g>
			</g>
			<g class="st28">
				<g>
					<path class="st29" d="M41.59,194.74c0,17.25,0.82,34.54,1.26,51.79c0.44,17.43,0.85,34.87,1.33,52.3
						c0.28,9.99,0.52,19.99,0.77,29.98c0.01,0.25,0.4,0.25,0.39,0c-0.88-34.91-1.76-69.83-2.65-104.74
						c-0.25-9.77-0.31-19.57-0.8-29.33C41.88,194.54,41.59,194.54,41.59,194.74L41.59,194.74z"/>
				</g>
			</g>
			<g class="st28">
				<g>
					<path class="st29" d="M92.7,171.62c-0.54,4.46,0.62,8.63,1.63,12.94c1.2,5.12,1.42,10.2,1.24,15.45
						c-0.36,10.44-0.77,20.88-1.14,31.32c-0.73,20.43-1.43,40.86-2.16,61.29c-0.42,11.79-0.92,23.58-1.24,35.37
						c-0.01,0.34,0.51,0.34,0.53,0c1.8-41.17,3.15-82.39,4.45-123.58c0.17-5.31,0.52-10.71-0.42-15.97
						c-1-5.63-3.26-11.01-2.67-16.82C92.93,171.48,92.71,171.48,92.7,171.62L92.7,171.62z"/>
				</g>
			</g>
			<path class="st21" d="M22.26,116.74c0,0,1.77,5.26,18.22,8.39c0.95-2.86,2.4-9.47,2.4-9.47l-8-27.72c0,0-4.89,1.44-7.82,13.21
				C22.89,113.65,22.26,116.74,22.26,116.74z"/>
			<path class="st21" d="M114.91,117.91c0,0-2.49,4.08-18.95,7.21c-0.95-2.86-2.22-9.47-2.22-9.47l8-27.72c0,0,4.89,1.44,7.82,13.21
				C113.73,113.65,114.91,117.91,114.91,117.91z"/>
			<g class="st28">
				<g>
					<path class="st29" d="M46.35,259.33c0.16,0.8,0.99,0.99,1.69,1.15c1.17,0.26,2.37,0.4,3.55,0.17c0.21-0.04,0.14-0.33-0.05-0.35
						c-0.72-0.08-1.45-0.11-2.17-0.19c-0.58-0.07-2.29-0.16-2.45-0.93C46.84,258.8,46.28,258.96,46.35,259.33L46.35,259.33z"/>
				</g>
			</g>
			<g class="st28">
				<g>
					<path class="st29" d="M82.72,259.4c1.71,2,5.38,1.64,7.53,0.67c0.16-0.07,0.08-0.34-0.09-0.33c-1.28,0.08-2.49,0.55-3.79,0.52
						c-1.31-0.02-2.36-0.44-3.48-1.08C82.74,259.1,82.62,259.28,82.72,259.4L82.72,259.4z"/>
				</g>
			</g>
		</g>
	</g>
</g>
<g>
	<defs>
		<circle id="SVGID_5_" cx="66.58" cy="42.93" r="46.2"/>
	</defs>
	<clipPath id="SVGID_6_">
		<use xlink:href="#SVGID_5_"  style="overflow:visible;"/>
	</clipPath>
	<g class="st30">
		<g>
			<path class="st31" d="M78.57,80.64c-0.26-0.76-0.83-3.24-0.66-10.46H67.63H57.34c0.17,7.22-0.4,9.71-0.66,10.46
				C56.44,80.72,45.95,85,45.95,85l21.68,7.3l22.04-7.19C89.66,85.1,78.81,80.72,78.57,80.64z"/>
			<g>
				<path class="st10" d="M85.66,49.86c0,0,3.31-1.4,5.26,1.18c1.95,2.58-1.92,10.97-8.47,8.24"/>
				
					<linearGradient id="SVGID_7_" gradientUnits="userSpaceOnUse" x1="-58.5513" y1="24.2334" x2="-51.8177" y2="24.2334" gradientTransform="matrix(0.9466 0.3224 -0.3224 0.9466 148.7807 50.3637)">
					<stop  offset="0" style="stop-color:#F8A88B"/>
					<stop  offset="1" style="stop-color:#F8A88B;stop-opacity:0"/>
				</linearGradient>
				<path class="st32" d="M85.66,49.86c0,0,3.31-1.4,5.26,1.18c1.95,2.58-1.92,10.97-8.47,8.24"/>
			</g>
			<g>
				<path class="st10" d="M49.51,50.1c0,0-3.12-1.77-5.36,0.57c-2.24,2.34,0.64,11.12,7.46,9.16"/>
				
					<linearGradient id="SVGID_8_" gradientUnits="userSpaceOnUse" x1="134.6284" y1="98.3405" x2="129.0306" y2="98.4123" gradientTransform="matrix(0.9775 -0.211 0.211 0.9775 -102.6433 -13.2151)">
					<stop  offset="0" style="stop-color:#F8A88B"/>
					<stop  offset="1" style="stop-color:#F8A88B;stop-opacity:0"/>
				</linearGradient>
				<path class="st33" d="M49.51,50.1c0,0-3.12-1.77-5.36,0.57c-2.24,2.34,0.64,11.12,7.46,9.16"/>
			</g>
			<path class="st34" d="M85.73,36.12c-2.97-12.63-18.28-10.62-18.28-10.62s-15.31-2.01-18.28,10.62c0,0-1.59,14.64,0.71,22.49
				c2.3,7.85,8.09,17.89,17.57,17.89s15.12-10.64,17.42-18.49C87.16,50.16,85.73,36.12,85.73,36.12z"/>
			<g>
				<path class="st35" d="M66.47,52.88c0,0,0.22,4.82-1.66,7.15c0,0,0.84,0.6,2.27,1.35"/>
				<path class="st15" d="M57.65,53.48c0.1,0.98,0.74,1.71,1.44,1.64s1.18-0.92,1.08-1.9c-0.1-0.98-0.74-1.71-1.44-1.64
					C58.03,51.65,57.55,52.5,57.65,53.48z"/>
				<path class="st36" d="M62.57,47.91c0,0-5.53-1.76-8.88,0.52C53.69,48.43,57.4,45.02,62.57,47.91z"/>
				<path class="st17" d="M60.06,60.4c-0.08,1.37-1.93,2.38-4.12,2.25c-2.2-0.13-3.91-1.35-3.83-2.72c0.08-1.37,1.93-2.38,4.12-2.25
					C58.43,57.81,60.14,59.03,60.06,60.4z"/>
				<path class="st15" d="M77.66,53.52c-0.07,0.98-0.69,1.73-1.39,1.68c-0.7-0.05-1.2-0.88-1.13-1.86s0.69-1.73,1.39-1.68
					C77.22,51.71,77.73,52.54,77.66,53.52z"/>
				<path class="st36" d="M72.94,47.66c0,0,5.57-1.57,8.85,0.81C81.78,48.47,78.19,44.94,72.94,47.66z"/>
				<path class="st17" d="M74.54,60.62c0.12,1.37,2,2.32,4.19,2.12c2.19-0.2,3.87-1.47,3.74-2.84c-0.12-1.37-2-2.32-4.19-2.12
					C76.09,57.98,74.42,59.25,74.54,60.62z"/>
			</g>
		</g>
		<path class="st37" d="M48.7,50.78l0.95-7.67c0,0,7.26,0.22,8.62-7.1c1.12,2.12,4.72,2.73,5.99,2.95c1.38,1.84,4.46,3.01,7.17,2.48
			c-4.54-2.9-3.61-6.24-3.61-6.24s0.83,3.94,9.39,5.77c-2.53-2.18-3.06-4.19-3.06-4.19s3.17,3.95,9.84,4.29
			c1.92,4.49,1.54,9.84,1.54,9.84l1.3-9.47c0,0,5.98,1.43,0.84-3.12c-5.14-4.55-4.85-4.08-4.85-4.08l-12.12-3.86
			c0,0-0.8-1.86-9.3-0.8c-8.5,1.06-5.61-4.9-8.2,0.53c-2.6,5.43-2.12,3.54-2.12,3.54l-1.83,3.3l-2.38,2.6v2.77L48.7,50.78z"/>
		<path class="st19" d="M48.7,50.78l0.49-8.9c0,0,6.3,0.68,8.75-7.64c1.51,1.95,2.28,3.66,7.18,4.19c2.6,2.18,3.01,2.18,6.31,3.01
			c-1.83-1.36-3.58-4.49-3.18-7.2c1.05,2.6,5.29,6.31,8.96,6.73c-2.36-1.95-2.54-5.31-2.54-5.31c3.07,2.82,7.2,4.67,9.73,4.67
			c1.02,3.18,1.13,10.59,1.13,10.59s2.08-2.33,3.9-0.97c1.42-4.01,3.07-12.39,2.98-14.07c-0.09-1.68-1.48-6.46-1.48-6.46
			s1.74,1.42,3.87,0.98c-1.68-0.98-3.98-3.54-4.78-5.76c-0.8-2.21-3.9-10.53-14.08-10.27c3.37-0.27,4.12-1.33,4.12-1.33
			s-2.7,0.97-5.67-0.27c-2.97-1.24-8.32-2.39-12.35,1.24c0.44-1.11,1.33-3.1,3.01-3.89c-2.97,1.42-5.75,2.39-7.92,8.23
			c-2.92-1.46-8.59-1.46-12.04,5.05c-1.11,2.26-2.97,10.93-6.73,12.3c2.08-0.27,5.22-1.15,5.53-2.3c-0.75,2.66-2.79,6.73-3.59,6.99
			c1.95-0.13,3.45-2.35,3.45-2.35s-0.82,6.51,1.72,11.67C46.33,49.48,47.16,49.23,48.7,50.78z"/>
		<g>
			<g>
				<g>
					<path class="st24" d="M71.43,41.44c-2.12-0.09-4.22-0.9-5.9-2.26c-0.85-0.68-1.56-1.53-2.07-2.48
						c-0.56-0.93-0.79-2.01-0.93-3.05c0.4,0.98,0.79,1.93,1.4,2.76c0.57,0.83,1.25,1.6,2.05,2.22c0.78,0.64,1.65,1.18,2.56,1.65
						C69.46,40.73,70.42,41.14,71.43,41.44z"/>
				</g>
				<g>
					<path class="st24" d="M65.81,35.2c0.63,1.33,1.3,2.58,2.17,3.67c0.42,0.55,0.93,1.03,1.47,1.47c0.54,0.45,1.17,0.76,1.83,1.1
						c-0.73-0.05-1.49-0.25-2.14-0.64c-0.65-0.38-1.24-0.89-1.71-1.49c-0.46-0.6-0.85-1.25-1.12-1.95
						C66.03,36.67,65.84,35.94,65.81,35.2z"/>
				</g>
				<g>
					<path class="st24" d="M69.89,34.12c0.84,1.54,1.82,2.94,3.04,4.1c0.59,0.6,1.26,1.11,1.98,1.56c0.71,0.48,1.49,0.81,2.3,1.18
						c-0.87-0.09-1.76-0.28-2.56-0.69c-0.42-0.17-0.78-0.44-1.17-0.67c-0.35-0.28-0.72-0.55-1.03-0.87
						c-0.64-0.63-1.2-1.34-1.63-2.13C70.38,35.83,70.04,34.99,69.89,34.12z"/>
				</g>
				<g>
					<path class="st24" d="M57.94,34.24c-0.24,1.4-0.78,2.76-1.57,3.98c-0.78,1.22-1.86,2.28-3.17,2.97
						c-1.31,0.66-2.8,1.04-4.26,0.88l-0.54-0.02l-0.53-0.1l-1.06-0.22c-0.68-0.22-1.35-0.49-2-0.76c0.71,0.12,1.38,0.31,2.07,0.42
						l1.04,0.1l0.52,0.06l0.52-0.02l1.03-0.04l1-0.2c0.34-0.04,0.64-0.2,0.97-0.3l0.48-0.17l0.44-0.25c1.2-0.62,2.22-1.57,3.05-2.66
						C56.74,36.79,57.43,35.57,57.94,34.24z"/>
				</g>
				<g>
					<path class="st24" d="M74.67,35.66c0.82,0.76,1.7,1.4,2.62,1.98c0.92,0.57,1.89,1.06,2.9,1.42c1.01,0.38,2.05,0.67,3.12,0.82
						c1.07,0.19,2.16,0.22,3.28,0.26c-0.54,0.11-1.1,0.22-1.65,0.27c-0.56,0.03-1.12,0.08-1.69,0.01c-1.13-0.05-2.25-0.32-3.31-0.71
						c-1.06-0.4-2.07-0.95-2.97-1.63C76.08,37.41,75.27,36.59,74.67,35.66z"/>
				</g>
			</g>
		</g>
		<g>
			<path class="st38" d="M72.55,65.92c-0.12,0.41-0.37,0.95-0.74,1.53c-0.15,0.26-0.34,0.53-0.53,0.79
				c-1.03,1.37-2.55,2.67-4.23,2.62c-1.82-0.05-3.16-1.3-3.97-2.49c-0.18-0.26-0.34-0.52-0.46-0.76c-0.15-0.31-0.27-0.59-0.35-0.83
				c-0.25-0.76-0.12-1.17,0.06-1.38c0.03-0.03,0.05-0.04,0.08-0.05c0.06-0.06,0.15-0.1,0.22-0.1c0.01,0,0.01,0,0.03,0h0.08
				c3.35-0.23,7.58-0.58,9.18-0.06h0.01c0.03,0.01,0.04,0.01,0.06,0.03C72.43,65.38,72.65,65.6,72.55,65.92z"/>
			<path class="st39" d="M71.28,68.24c-1.03,1.37-2.55,2.68-4.23,2.62c-1.82-0.06-3.16-1.3-3.97-2.48
				C64.5,67.32,68.25,66.12,71.28,68.24z"/>
			<path class="st21" d="M71.92,65.19c-0.09,0.14-0.15,0.14-0.15,0.14c-1.43,0.81-6.91,1.53-8.98,0c-0.03-0.01-0.04-0.04-0.05-0.08
				C66.09,65.02,70.32,64.67,71.92,65.19z"/>
		</g>
	</g>
</g>
<g>
</g>
<g>
</g>
<g>
</g>
<g>
</g>
<g>
</g>
<g>
</g>
</svg>
