<?xml version="1.0" encoding="utf-8"?>
<!-- Generator: Adobe Illustrator 23.0.3, SVG Export Plug-In . SVG Version: 6.00 Build 0)  -->
<svg version="1.1" id="Layer_1" xmlns="http://www.w3.org/2000/svg" xmlns:xlink="http://www.w3.org/1999/xlink" x="0px" y="0px"
	 viewBox="0 0 140 150" style="enable-background:new 0 0 140 150;" xml:space="preserve">
<style type="text/css">
	.st0{clip-path:url(#SVGID_2_);}
	.st1{fill:#73584E;}
	.st2{fill:#FCC5A7;}
	.st3{fill:#F7FCFE;}
	.st4{fill:#C54527;}
	.st5{fill:#ECEEEE;}
	.st6{fill:#D3D3D3;}
	.st7{display:none;}
	.st8{display:inline;fill:#FAB294;}
	.st9{display:inline;}
	.st10{fill:#FCCAAB;}
	.st11{fill:url(#SVGID_3_);}
	.st12{fill:url(#SVGID_4_);}
	.st13{display:inline;fill:#FAC0A1;}
	.st14{fill:none;stroke:#F68F6D;stroke-width:0.5495;stroke-linecap:round;stroke-linejoin:round;stroke-miterlimit:10;}
	.st15{fill:#383938;}
	.st16{fill:none;stroke:#383938;stroke-width:0.8415;stroke-linecap:round;stroke-linejoin:round;stroke-miterlimit:10;}
	.st17{fill:#FAB491;}
	.st18{fill:#F79D80;}
	.st19{fill:#193145;}
	.st20{fill:#10293B;}
	.st21{display:none;opacity:0.3;fill:#D54848;}
	.st22{display:none;fill:#193145;}
	.st23{fill:#224157;}
	.st24{display:inline;fill:#832721;}
	.st25{display:inline;fill:#BA3B3B;}
	.st26{display:inline;fill:#FFFFFF;}
	.st27{opacity:0.45;}
	.st28{fill:#254A64;}
	.st29{clip-path:url(#SVGID_6_);}
	.st30{fill:#FAB294;}
	.st31{fill:url(#SVGID_7_);}
	.st32{fill:url(#SVGID_8_);}
	.st33{fill:#FAC0A1;}
	.st34{fill:none;stroke:#F68F6D;stroke-width:0.6514;stroke-linecap:round;stroke-linejoin:round;stroke-miterlimit:10;}
	.st35{fill:none;stroke:#383938;stroke-width:0.9975;stroke-linecap:round;stroke-linejoin:round;stroke-miterlimit:10;}
	.st36{opacity:0.3;fill:#D54848;}
	.st37{fill:#832721;}
	.st38{fill:#FFFFFF;}
</style>
<g>
	<defs>
		<circle id="SVGID_1_" cx="70.09" cy="78.67" r="66.19"/>
	</defs>
	<use xlink:href="#SVGID_1_"  style="overflow:visible;fill:#CECECD;"/>
	<clipPath id="SVGID_2_">
		<use xlink:href="#SVGID_1_"  style="overflow:visible;"/>
	</clipPath>
	<g class="st0">
		<ellipse class="st1" cx="67.47" cy="335.53" rx="57.09" ry="5.6"/>
		<g>
			<g>
				<g>
					<path class="st2" d="M45.45,318.09l0.37,8.62c0,0,4.68,2.72,8.11-0.04c0,0,0.77-7.64,1.1-12.72"/>
				</g>
				<g>
					<path class="st3" d="M55.3,334.79c-0.99,0.03-2.2,0.03-3.53,0.03c-9,0.09-23.95-0.03-23.95-0.03s-1.16-4.99,5.16-4.57
						c2.37,0.14,4.74-0.51,6.82-1.64c3.5-1.95,5.41-3.93,5.81-4.18c0.51-0.37,1.39,3.72,8.13,1.83c0.2-0.03,0.39,0.06,0.45,0.23
						c0.48,1.1,0.82,1.86,1.02,2.68C55.55,330.36,55.58,331.8,55.3,334.79z"/>
					<path class="st4" d="M39.65,330.86l-1.26-1.8c0-0.02,0.01-0.04,0.01-0.06l0.3-0.21c0.02,0,0.04,0.01,0.06,0.01l1.26,1.8
						c0,0.02-0.01,0.04-0.01,0.06l-0.3,0.21C39.69,330.86,39.67,330.86,39.65,330.86z"/>
					<path class="st4" d="M40.52,330.36l-1.26-1.8c0-0.02,0.01-0.04,0.01-0.06l0.3-0.21c0.02,0,0.04,0.01,0.06,0.01l1.26,1.8
						c0,0.02-0.01,0.04-0.01,0.06l-0.3,0.21C40.56,330.37,40.54,330.37,40.52,330.36z"/>
					<path class="st4" d="M41.27,329.89l-1.26-1.8c0-0.02,0.01-0.04,0.01-0.06l0.3-0.21c0.02,0,0.04,0.01,0.06,0.01l1.26,1.8
						c0,0.02-0.01,0.04-0.01,0.06l-0.3,0.21C41.31,329.9,41.3,329.9,41.27,329.89z"/>
					<path class="st4" d="M42,329.38l-1.26-1.8c0-0.02,0.01-0.04,0.01-0.06l0.3-0.21c0.02,0,0.04,0.01,0.06,0.01l1.26,1.8
						c0,0.02-0.01,0.04-0.01,0.06l-0.3,0.21C42.04,329.39,42.03,329.39,42,329.38z"/>
					<path class="st4" d="M42.76,328.91l-1.26-1.8c0-0.02,0.01-0.04,0.01-0.06l0.3-0.21c0.02,0,0.04,0.01,0.06,0.01l1.26,1.8
						c0,0.02-0.01,0.04-0.01,0.06l-0.3,0.21C42.8,328.92,42.78,328.91,42.76,328.91z"/>
					<path class="st4" d="M43.54,328.36l-1.26-1.8c0-0.02,0.01-0.04,0.01-0.06l0.3-0.21c0.02,0,0.04,0.01,0.06,0.01l1.26,1.8
						c0,0.02-0.01,0.04-0.01,0.06l-0.3,0.21C43.58,328.36,43.57,328.36,43.54,328.36z"/>
					<path class="st4" d="M44.22,327.88l-1.26-1.8c0-0.02,0.01-0.04,0.01-0.06l0.3-0.21c0.02,0,0.04,0.01,0.06,0.01l1.26,1.8
						c0,0.02-0.01,0.04-0.01,0.06l-0.3,0.21C44.26,327.89,44.24,327.89,44.22,327.88z"/>
					<path class="st5" d="M55.3,334.79c-0.99,0.03-2.2,0.03-3.53,0.03c-0.2,0,0.19-1.71,0.25-1.89c0.28-0.88,0.74-1.71,1.37-2.39
						c0.17-0.18,1.82-1.43,1.82-1.42C55.55,330.36,55.58,331.8,55.3,334.79z"/>
					<path class="st6" d="M55.3,335.63l-27.43,0.02c-0.22,0-0.41-0.18-0.41-0.41l0-0.07c0-0.22,0.18-0.41,0.41-0.41l27.43-0.02
						c0.22,0,0.41,0.18,0.41,0.41l0,0.07C55.7,335.45,55.52,335.63,55.3,335.63z"/>
				</g>
			</g>
			<g>
				<g>
					<path class="st2" d="M91.5,318.09l-0.37,8.62c0,0-4.68,2.72-8.11-0.04c0,0-0.77-7.64-1.1-12.72"/>
				</g>
				<g>
					<path class="st3" d="M81.65,334.79c0.99,0.03,2.2,0.03,3.53,0.03c9,0.09,23.95-0.03,23.95-0.03s1.16-4.99-5.16-4.57
						c-2.37,0.14-4.74-0.51-6.82-1.64c-3.5-1.95-5.41-3.93-5.81-4.18c-0.51-0.37-1.39,3.72-8.13,1.83c-0.2-0.03-0.39,0.06-0.45,0.23
						c-0.48,1.1-0.82,1.86-1.02,2.68C81.4,330.36,81.37,331.8,81.65,334.79z"/>
					<path class="st4" d="M97.3,330.86l1.26-1.8c0-0.02-0.01-0.04-0.01-0.06l-0.3-0.21c-0.02,0-0.04,0.01-0.06,0.01l-1.26,1.8
						c0,0.02,0.01,0.04,0.01,0.06l0.3,0.21C97.26,330.86,97.27,330.86,97.3,330.86z"/>
					<path class="st4" d="M96.43,330.36l1.26-1.8c0-0.02-0.01-0.04-0.01-0.06l-0.3-0.21c-0.02,0-0.04,0.01-0.06,0.01l-1.26,1.8
						c0,0.02,0.01,0.04,0.01,0.06l0.3,0.21C96.39,330.37,96.4,330.37,96.43,330.36z"/>
					<path class="st4" d="M95.67,329.89l1.26-1.8c0-0.02-0.01-0.04-0.01-0.06l-0.3-0.21c-0.02,0-0.04,0.01-0.06,0.01l-1.26,1.8
						c0,0.02,0.01,0.04,0.01,0.06l0.3,0.21C95.64,329.9,95.65,329.9,95.67,329.89z"/>
					<path class="st4" d="M94.94,329.38l1.26-1.8c0.01-0.02,0.01-0.05-0.01-0.06l-0.3-0.21c-0.02,0-0.04,0.01-0.06,0.01l-1.26,1.8
						c0,0.02,0.01,0.04,0.01,0.06l0.3,0.21C94.91,329.39,94.92,329.39,94.94,329.38z"/>
					<path class="st4" d="M94.19,328.91l1.26-1.8c0-0.02-0.01-0.04-0.01-0.06l-0.3-0.21c-0.02,0-0.04,0.01-0.06,0.01l-1.26,1.8
						c0,0.02,0.01,0.04,0.01,0.06l0.3,0.21C94.15,328.92,94.16,328.91,94.19,328.91z"/>
					<path class="st4" d="M93.4,328.36l1.26-1.8c0-0.02-0.01-0.04-0.01-0.06l-0.3-0.21c-0.02,0-0.04,0.01-0.06,0.01l-1.26,1.8
						c0,0.02,0.01,0.04,0.01,0.06l0.3,0.21C93.36,328.36,93.38,328.36,93.4,328.36z"/>
					<path class="st4" d="M92.73,327.88l1.26-1.8c0-0.02-0.01-0.04-0.01-0.06l-0.3-0.21c-0.02,0-0.04,0.01-0.06,0.01l-1.26,1.8
						c0,0.02,0.01,0.04,0.01,0.06l0.3,0.21C92.69,327.89,92.7,327.89,92.73,327.88z"/>
					<path class="st5" d="M81.65,334.79c0.99,0.03,2.2,0.03,3.53,0.03c0.2,0-0.19-1.71-0.25-1.89c-0.28-0.88-0.74-1.71-1.37-2.39
						c-0.17-0.18-1.82-1.43-1.82-1.42C81.4,330.36,81.37,331.8,81.65,334.79z"/>
					<path class="st6" d="M81.65,335.63l27.43,0.02c0.22,0,0.41-0.18,0.41-0.41l0-0.07c0-0.22-0.18-0.41-0.41-0.41l-27.43-0.02
						c-0.22,0-0.41,0.18-0.41,0.41l0,0.07C81.24,335.45,81.43,335.63,81.65,335.63z"/>
				</g>
			</g>
			<g class="st7">
				<path class="st8" d="M77.19,83.23c-0.21-0.61-0.67-2.62-0.53-8.46h-8.32h-8.32c0.13,5.84-0.32,7.85-0.53,8.46
					c-0.19,0.06-7.96,3.04-7.96,3.04l16.81,6.38l17.82-5.82C86.16,86.84,77.39,83.3,77.19,83.23z"/>
				<g class="st9">
					<path class="st10" d="M82.92,58.34c0,0,2.67-1.13,4.25,0.96c1.58,2.09-1.55,8.87-6.85,6.66"/>
					
						<linearGradient id="SVGID_3_" gradientUnits="userSpaceOnUse" x1="-58.6676" y1="32.3101" x2="-53.2228" y2="32.3101" gradientTransform="matrix(0.9466 0.3224 -0.3224 0.9466 148.7807 50.3637)">
						<stop  offset="0" style="stop-color:#F8A88B"/>
						<stop  offset="1" style="stop-color:#F8A88B;stop-opacity:0"/>
					</linearGradient>
					<path class="st11" d="M82.92,58.34c0,0,2.67-1.13,4.25,0.96c1.58,2.09-1.55,8.87-6.85,6.66"/>
				</g>
				<g class="st9">
					<path class="st10" d="M53.69,58.54c0,0-2.53-1.43-4.33,0.46c-1.81,1.89,0.52,8.99,6.03,7.41"/>
					
						<linearGradient id="SVGID_4_" gradientUnits="userSpaceOnUse" x1="137.0783" y1="106.6376" x2="132.5519" y2="106.6956" gradientTransform="matrix(0.9775 -0.211 0.211 0.9775 -102.6433 -13.2151)">
						<stop  offset="0" style="stop-color:#F8A88B"/>
						<stop  offset="1" style="stop-color:#F8A88B;stop-opacity:0"/>
					</linearGradient>
					<path class="st12" d="M53.69,58.54c0,0-2.53-1.43-4.33,0.46c-1.81,1.89,0.52,8.99,6.03,7.41"/>
				</g>
				<path class="st13" d="M82.98,47.23c-2.4-10.21-14.78-8.59-14.78-8.59s-12.38-1.62-14.78,8.59c0,0-1.28,11.84,0.57,18.18
					c1.86,6.34,6.54,14.47,14.2,14.47s12.22-8.6,14.08-14.95C84.14,58.59,82.98,47.23,82.98,47.23z"/>
				<g class="st9">
					<path class="st14" d="M68.58,59.85c0,0-0.11,3.9-1.76,5.67c0,0,0.64,0.54,1.75,1.22"/>
					<path class="st15" d="M60.97,61.27c0.08,0.79,0.6,1.38,1.16,1.33c0.56-0.06,0.95-0.74,0.87-1.53c-0.08-0.79-0.6-1.38-1.16-1.33
						C61.28,59.79,60.89,60.48,60.97,61.27z"/>
					<path class="st16" d="M64.26,56.76c0,0-4.47-1.42-7.18,0.42C57.07,57.18,60.07,54.43,64.26,56.76z"/>
					<path class="st17" d="M62.22,66.86c-0.07,1.11-1.56,1.92-3.33,1.82c-1.78-0.11-3.16-1.09-3.09-2.2
						c0.07-1.11,1.56-1.92,3.33-1.82C60.9,64.77,62.29,65.75,62.22,66.86z"/>
					<path class="st15" d="M75.63,61.3c-0.06,0.79-0.56,1.4-1.12,1.36c-0.56-0.04-0.97-0.71-0.92-1.51c0.06-0.79,0.56-1.4,1.12-1.36
						C75.27,59.84,75.68,60.51,75.63,61.3z"/>
					<path class="st16" d="M72.64,56.57c0,0,4.5-1.27,7.15,0.65C79.79,57.22,76.88,54.37,72.64,56.57z"/>
					<path class="st17" d="M73.93,67.04c0.1,1.11,1.62,1.87,3.39,1.71c1.77-0.16,3.13-1.19,3.03-2.3c-0.1-1.11-1.62-1.87-3.39-1.71
						C75.19,64.91,73.83,65.94,73.93,67.04z"/>
				</g>
			</g>
			<g>
				<path class="st18" d="M27.94,195.65c0,0-1.23,2.53-1.23,3.35c0,0.82,0.23,3.26,0.61,3.92c0.39,0.65,2.71,3.1,2.93,3.55
					s0.4,1.49,0,1.59c-0.59,0.15-4.14-2.94-4.14-2.94l-2.73-5.22c0,0,0.36-3.22,0.45-3.43c0.09-0.2,1.91-2.77,1.91-2.77"/>
				<path class="st2" d="M23.38,191.41c-0.74,2.93-1.48,6.92-1.26,8.12c0.22,1.2,2.37,5.19,2.37,5.19s3.93,2.93,4.45,2.99
					c0.52,0.07,0.67-1.1,0-1.83c-0.67-0.73-2.52-2.33-2.71-2.76c-0.19-0.43-0.52-3.56-0.5-4.13c0.02-0.57,1.5-2.69,2.43-2.63
					s1.45,1.56,1.45,2.16c0,0.6,0.22,2,0.56,2.46c0.33,0.47,1.19,0.67,1.52,0.3c0.33-0.37,0.59-3.69,0.59-4.36
					c0-0.67-2.15-4.92-2.34-5.86c-0.19-0.93,0.82-8.45,0.82-8.45l-6.9-0.87C23.86,181.76,24.12,188.48,23.38,191.41z"/>
				<path class="st2" d="M44.31,105.87c0,5.14-1.22,11.41-2.72,17.2c-0.47,1.79-0.96,3.55-1.45,5.2
					c-2.09,6.99-4.17,12.28-4.17,12.28c0,10.62-5.27,42.6-5.27,42.6s-2.74,0.52-6.84,0.06c-2.45-17.31-2.47-43.26-2.47-43.26
					c0-5.51,1.37-12.77,3.05-19.76c0.36-1.49,0.74-2.96,1.12-4.4c1.89-7.24,3.88-13.67,4.71-16.87c1.77-6.84,5.7-8.59,5.7-8.59
					S44.31,99.14,44.31,105.87z"/>
			</g>
			<g>
				<path class="st18" d="M107.99,193.44c0,0,1.23,2.53,1.23,3.35c0,0.82-0.23,3.26-0.61,3.92c-0.39,0.65-2.71,3.1-2.93,3.55
					c-0.23,0.45-0.4,1.49,0,1.59c0.59,0.15,4.14-2.94,4.14-2.94l2.73-5.22c0,0-0.36-3.22-0.45-3.43c-0.09-0.2-1.91-2.77-1.91-2.77"
					/>
				<path class="st2" d="M112.55,189.19c0.74,2.93,1.48,6.92,1.26,8.12c-0.22,1.2-2.37,5.19-2.37,5.19s-3.93,2.93-4.45,2.99
					c-0.52,0.07-0.67-1.1,0-1.83c0.67-0.73,2.52-2.33,2.71-2.76c0.19-0.43,0.52-3.56,0.5-4.13c-0.02-0.57-1.5-2.69-2.43-2.63
					c-0.93,0.07-1.45,1.56-1.45,2.16c0,0.6-0.22,2-0.56,2.46c-0.33,0.47-1.19,0.67-1.52,0.3c-0.33-0.37-0.59-3.69-0.59-4.36
					s2.15-4.92,2.34-5.86c0.19-0.93-0.82-8.45-0.82-8.45l6.9-0.87C112.07,179.54,111.81,186.27,112.55,189.19z"/>
				<path class="st2" d="M100.12,90.28c0,0,3.94,1.75,5.71,8.58c1.77,6.83,8.87,28.45,8.87,41c0,0-0.2,25.88-2.65,43.17
					c-4.09,0.46-6.54,0.04-6.54,0.04s-5.39-32-5.39-42.61c0,0-8.34-21.21-8.34-34.65C91.78,99.09,100.12,90.28,100.12,90.28z"/>
			</g>
			<g>
				<g>
					<g>
						<path class="st19" d="M96.45,214.8c-0.01-0.01-0.01-0.01-0.01-0.01l-2.37,39.88c0,0,0.27,15.85-0.06,34.27
							c0,0.14-0.01,0.28-0.01,0.43v0.3c-0.37,18.32-1.87,31.87-1.87,31.87h-10.8c0,0-1.9-16.64-4.27-38.08
							c-0.01-0.14-0.02-0.28-0.04-0.44c-0.04-0.37-0.08-0.74-0.13-1.12c-0.03-0.34-0.07-0.69-0.1-1.03
							c-1.03-10.7-1.27-24.41-1.27-24.41c-2.33-13.48-5.46-43.32-6.74-55.74h-1.12c-1.27,12.42-4.42,42.26-6.74,55.74
							c0,0-0.25,13.71-1.27,24.41c-0.03,0.34-0.08,0.69-0.11,1.03c-0.04,0.38-0.07,0.75-0.11,1.12c-0.02,0.16-0.03,0.3-0.04,0.44
							c-2.37,21.44-4.27,38.08-4.27,38.08h-10.8c0,0-1.5-13.55-1.88-31.87v-0.3c0-0.15-0.01-0.29-0.01-0.43
							c-0.33-18.42-0.05-34.27-0.05-34.27L40,214.79c0,0,0,0-0.01,0.01c-0.11-11.22-0.15-19.49-0.02-22.01
							c0.41-7.73,2.17-17.53,3.17-22.58c0.19-0.96,0.34-1.74,0.47-2.3c0.14-0.67,0.22-1.03,0.22-1.03h48.79c0,0,0.26,1.2,0.66,3.17
							c0.98,5,2.79,14.93,3.2,22.74C96.61,195.31,96.58,203.58,96.45,214.8z"/>
					</g>
				</g>
			</g>
			<path class="st20" d="M93.28,170.04c-24.72,5.59-43.85-0.04-49.67-2.14c0.14-0.67,0.22-1.03,0.22-1.03h48.79
				C92.63,166.87,92.89,168.07,93.28,170.04z"/>
			<g>
				<path class="st3" d="M92.23,156.78l-0.02,0.03c-0.45-10.01-0.97-24.53-0.54-29.09c0.89-9.52,8.47-37.44,8.47-37.44L80.86,84.8
					l-0.37,0.26c-7.44,5.22-17.41,5.02-24.64-0.48l0,0l-19.84,5.7c0,0,7.57,27.93,8.47,37.44c0.43,4.56-0.1,19.07-0.55,29.08
					l-0.01-0.01c0,0-2.69,8.18-0.49,10.12l0,0l0,0c0,0,0,0,0,0l0,0c9.91,3.17,24.64,3.17,24.64,3.17h0.01c0,0,14.73,0,24.64-3.18
					c0,0,0,0,0,0C94.92,164.96,92.23,156.78,92.23,156.78z"/>
			</g>
			<path class="st21" d="M53.04,59.08l0.77-6.2c0,0,5.87,0.17,6.97-5.74c0.91,1.72,3.82,2.21,4.84,2.39c1.12,1.49,3.6,2.43,5.8,2
				c-3.67-2.35-2.92-5.05-2.92-5.05s0.67,3.19,7.59,4.66c-2.05-1.77-2.48-3.39-2.48-3.39s2.56,3.2,7.96,3.47
				c1.56,3.63,1.25,7.96,1.25,7.96l1.05-7.66c0,0,4.84,1.16,0.68-2.52c-4.16-3.68-3.92-3.3-3.92-3.3l-9.8-3.12
				c0,0-0.65-1.51-7.52-0.65c-6.87,0.86-4.53-3.96-6.63,0.43c-2.1,4.39-1.72,2.86-1.72,2.86l-1.48,2.67l-1.93,2.1v2.24L53.04,59.08z
				"/>
			<path class="st22" d="M53.04,59.08l0.4-7.19c0,0,5.09,0.55,7.07-6.18c1.22,1.57,1.84,2.96,5.8,3.39c2.1,1.77,2.43,1.77,5.11,2.43
				c-1.48-1.1-2.9-3.63-2.57-5.82c0.85,2.1,4.28,5.11,7.24,5.44c-1.9-1.57-2.05-4.29-2.05-4.29c2.48,2.28,5.82,3.78,7.87,3.78
				c0.83,2.57,0.91,8.56,0.91,8.56s1.68-1.89,3.15-0.79c1.14-3.24,2.48-10.02,2.41-11.38c-0.07-1.36-1.19-5.23-1.19-5.23
				s1.41,1.15,3.13,0.79c-1.36-0.79-3.22-2.87-3.87-4.66c-0.64-1.79-3.16-8.52-11.38-8.3c2.72-0.21,3.33-1.07,3.33-1.07
				s-2.18,0.79-4.58-0.21c-2.4-1-6.73-1.93-9.99,1c0.36-0.89,1.07-2.51,2.43-3.15c-2.4,1.15-4.65,1.93-6.41,6.66
				c-2.36-1.18-6.94-1.18-9.73,4.08c-0.89,1.83-2.4,8.84-5.44,9.95c1.68-0.21,4.22-0.93,4.47-1.86c-0.61,2.15-2.25,5.44-2.9,5.65
				c1.57-0.11,2.79-1.9,2.79-1.9s-0.66,5.27,1.39,9.43C51.12,58.04,51.79,57.83,53.04,59.08z"/>
			<g class="st7">
				<g class="st9">
					<g>
						<path class="st23" d="M71.41,51.53c-1.71-0.07-3.41-0.73-4.77-1.83c-0.68-0.55-1.26-1.24-1.67-2.01
							c-0.45-0.75-0.64-1.63-0.75-2.46c0.33,0.79,0.64,1.56,1.13,2.23c0.46,0.67,1.01,1.29,1.65,1.8c0.63,0.52,1.33,0.96,2.07,1.33
							C69.82,50.96,70.6,51.29,71.41,51.53z"/>
					</g>
					<g>
						<path class="st23" d="M66.87,46.49c0.51,1.08,1.05,2.09,1.75,2.97c0.34,0.45,0.75,0.83,1.19,1.19
							c0.44,0.36,0.94,0.62,1.48,0.89c-0.59-0.04-1.2-0.2-1.73-0.52c-0.53-0.31-1-0.72-1.38-1.2c-0.37-0.48-0.68-1.01-0.9-1.58
							C67.05,47.68,66.89,47.09,66.87,46.49z"/>
					</g>
					<g>
						<path class="st23" d="M70.17,45.62c0.68,1.24,1.47,2.38,2.46,3.32c0.48,0.48,1.02,0.9,1.6,1.26c0.57,0.39,1.21,0.65,1.86,0.95
							c-0.7-0.07-1.42-0.23-2.07-0.56c-0.34-0.13-0.63-0.36-0.95-0.54c-0.29-0.22-0.58-0.44-0.84-0.7
							c-0.52-0.51-0.97-1.09-1.32-1.72C70.56,47,70.29,46.32,70.17,45.62z"/>
					</g>
					<g>
						<path class="st23" d="M60.51,45.71c-0.19,1.13-0.63,2.23-1.27,3.22c-0.63,0.99-1.51,1.84-2.56,2.4
							c-1.06,0.54-2.27,0.84-3.44,0.71l-0.44-0.02l-0.43-0.08l-0.85-0.18c-0.55-0.18-1.09-0.39-1.62-0.61
							c0.57,0.1,1.12,0.25,1.68,0.34l0.84,0.08l0.42,0.05l0.42-0.02l0.83-0.03l0.81-0.16c0.28-0.03,0.52-0.16,0.78-0.24l0.39-0.14
							l0.36-0.2c0.97-0.5,1.79-1.27,2.47-2.15C59.54,47.78,60.1,46.78,60.51,45.71z"/>
					</g>
					<g>
						<path class="st23" d="M74.04,46.86c0.66,0.61,1.38,1.13,2.12,1.6c0.75,0.46,1.53,0.86,2.35,1.15c0.81,0.3,1.66,0.54,2.53,0.66
							c0.87,0.15,1.75,0.18,2.65,0.21c-0.44,0.09-0.89,0.18-1.34,0.22c-0.45,0.02-0.91,0.06-1.36,0.01
							c-0.91-0.04-1.82-0.26-2.68-0.57c-0.86-0.32-1.67-0.77-2.4-1.32C75.17,48.27,74.53,47.61,74.04,46.86z"/>
					</g>
				</g>
			</g>
			<g class="st7">
				<path class="st24" d="M72.32,71.33c-0.09,0.33-0.3,0.77-0.59,1.24c-0.13,0.21-0.27,0.43-0.43,0.64
					c-0.83,1.11-2.06,2.16-3.42,2.12c-1.47-0.04-2.55-1.05-3.21-2.01c-0.15-0.21-0.27-0.42-0.38-0.62
					c-0.13-0.25-0.22-0.48-0.28-0.67c-0.2-0.62-0.09-0.95,0.05-1.12c0.02-0.02,0.04-0.03,0.06-0.04c0.05-0.05,0.13-0.08,0.18-0.08
					c0.01,0,0.01,0,0.02,0h0.06c2.71-0.19,6.13-0.47,7.42-0.05h0.01c0.02,0.01,0.03,0.01,0.05,0.02
					C72.23,70.89,72.41,71.07,72.32,71.33z"/>
				<path class="st25" d="M71.3,73.21c-0.83,1.11-2.07,2.17-3.42,2.12c-1.47-0.05-2.55-1.05-3.21-2.01
					C65.82,72.46,68.85,71.49,71.3,73.21z"/>
				<path class="st26" d="M71.81,70.74c-0.07,0.11-0.13,0.11-0.13,0.11c-1.16,0.66-5.59,1.24-7.26,0c-0.02-0.01-0.03-0.03-0.04-0.06
					C67.1,70.6,70.52,70.32,71.81,70.74z"/>
			</g>
			<g class="st27">
				<g>
					<path class="st28" d="M85.89,172.46c-0.99,6.7,3.02,12.63,7.1,17.54c0.17,0.21,0.46-0.09,0.29-0.29
						c-4.08-5.1-7.61-10.39-7.08-17.2C86.21,172.32,85.91,172.28,85.89,172.46L85.89,172.46z"/>
				</g>
			</g>
			<g class="st27">
				<g>
					<path class="st28" d="M51.49,173.03c-0.31,6.77-5.43,11.33-10.27,15.38c-0.22,0.19,0.1,0.5,0.32,0.32
						c4.95-4.12,10.18-8.79,10.4-15.7C51.95,172.74,51.5,172.75,51.49,173.03L51.49,173.03z"/>
				</g>
			</g>
			<g class="st27">
				<g>
					<path class="st28" d="M67.04,170.07c-0.61,3.69-0.17,7.76-0.15,11.5c0.02,4.16-0.06,8.34,0.14,12.49
						c0.01,0.19,0.29,0.19,0.29,0c0.1-4.16-0.05-8.33-0.08-12.49c-0.02-3.75,0.42-7.8-0.18-11.5
						C67.06,170.06,67.04,170.06,67.04,170.07L67.04,170.07z"/>
				</g>
			</g>
			<g class="st27">
				<g>
					<path class="st28" d="M67.49,191.07c0.9-0.56,2.46-1.29,3.01-2.25c0.69-1.2,0.36-3.61,0.44-4.96
						c0.27-4.46,0.36-8.93,0.33-13.39c0-0.2-0.32-0.21-0.32,0c0.03,3.55-0.02,7.1-0.19,10.66c-0.08,1.68-0.08,3.41-0.29,5.08
						c-0.29,2.35-1.45,3.39-3.08,4.76C67.34,191.01,67.42,191.11,67.49,191.07L67.49,191.07z"/>
				</g>
			</g>
			<g class="st27">
				<g>
					<path class="st28" d="M42.55,192.63c0,16.75,0.8,33.53,1.23,50.28c0.42,16.55,0.81,33.11,1.27,49.66
						c0.27,9.52,0.49,19.05,0.74,28.57c0.01,0.24,0.38,0.24,0.37,0c-0.84-33.27-1.68-66.55-2.53-99.82
						c-0.24-9.55-0.3-19.14-0.78-28.68C42.84,192.44,42.55,192.44,42.55,192.63L42.55,192.63z"/>
				</g>
			</g>
			<g class="st27">
				<g>
					<path class="st28" d="M91.54,170.47c-0.52,4.36,0.64,8.42,1.62,12.64c1.12,4.84,1.3,9.63,1.13,14.57
						c-0.34,9.87-0.73,19.75-1.08,29.62c-0.7,19.79-1.39,39.58-2.09,59.36c-0.4,11.23-0.87,22.46-1.18,33.7
						c-0.01,0.33,0.49,0.32,0.51,0c1.73-39.6,3.02-79.24,4.28-118.86c0.16-4.96,0.46-9.99-0.41-14.9
						c-0.95-5.4-3.12-10.55-2.56-16.13C91.77,170.33,91.56,170.34,91.54,170.47L91.54,170.47z"/>
				</g>
			</g>
			<path class="st3" d="M24.02,117.86c0,0,1.69,5.04,17.47,8.04c0.91-2.74,2.3-9.08,2.3-9.08l-7.67-26.57c0,0-4.68,1.38-7.5,12.66
				C24.63,114.91,24.02,117.86,24.02,117.86z"/>
			<path class="st3" d="M112.84,118.99c0,0-2.39,3.91-18.16,6.91c-0.91-2.74-2.13-9.08-2.13-9.08l7.67-26.57
				c0,0,4.68,1.38,7.5,12.66C111.71,114.91,112.84,118.99,112.84,118.99z"/>
			<g class="st27">
				<g>
					<path class="st28" d="M47.12,254.54c0.16,0.77,0.95,0.95,1.62,1.1c1.12,0.25,2.27,0.39,3.4,0.16c0.2-0.04,0.13-0.32-0.05-0.34
						c-0.69-0.08-1.39-0.11-2.08-0.19c-0.56-0.07-2.2-0.15-2.35-0.89C47.59,254.04,47.05,254.19,47.12,254.54L47.12,254.54z"/>
				</g>
			</g>
			<g class="st27">
				<g>
					<path class="st28" d="M81.98,254.61c1.64,1.92,5.16,1.57,7.22,0.65c0.16-0.07,0.08-0.33-0.09-0.32
						c-1.23,0.08-2.39,0.52-3.63,0.5c-1.25-0.02-2.26-0.42-3.34-1.04C82,254.32,81.88,254.49,81.98,254.61L81.98,254.61z"/>
				</g>
			</g>
		</g>
	</g>
</g>
<g>
	<defs>
		<circle id="SVGID_5_" cx="66.51" cy="45.86" r="44.29"/>
	</defs>
	<clipPath id="SVGID_6_">
		<use xlink:href="#SVGID_5_"  style="overflow:visible;"/>
	</clipPath>
	<g class="st29">
		<g>
			<path class="st30" d="M78.58,83.66c-0.25-0.73-0.79-3.11-0.63-10.03h-9.86h-9.86c0.16,6.92-0.38,9.3-0.63,10.03
				c-0.23,0.08-9.44,3.6-9.44,3.6l19.93,7.57l21.12-6.9C89.21,87.93,78.81,83.74,78.58,83.66z"/>
			<g>
				<path class="st10" d="M85.37,54.15c0,0,3.17-1.34,5.04,1.13c1.87,2.48-1.84,10.52-8.11,7.89"/>
				
					<linearGradient id="SVGID_7_" gradientUnits="userSpaceOnUse" x1="-57.4984" y1="28.2086" x2="-51.0439" y2="28.2086" gradientTransform="matrix(0.9466 0.3224 -0.3224 0.9466 148.7807 50.3637)">
					<stop  offset="0" style="stop-color:#F8A88B"/>
					<stop  offset="1" style="stop-color:#F8A88B;stop-opacity:0"/>
				</linearGradient>
				<path class="st31" d="M85.37,54.15c0,0,3.17-1.34,5.04,1.13c1.87,2.48-1.84,10.52-8.11,7.89"/>
			</g>
			<g>
				<path class="st10" d="M50.72,54.39c0,0-2.99-1.7-5.14,0.55c-2.14,2.25,0.61,10.66,7.15,8.78"/>
				
					<linearGradient id="SVGID_8_" gradientUnits="userSpaceOnUse" x1="134.9376" y1="102.601" x2="129.5719" y2="102.6697" gradientTransform="matrix(0.9775 -0.211 0.211 0.9775 -102.6433 -13.2151)">
					<stop  offset="0" style="stop-color:#F8A88B"/>
					<stop  offset="1" style="stop-color:#F8A88B;stop-opacity:0"/>
				</linearGradient>
				<path class="st32" d="M50.72,54.39c0,0-2.99-1.7-5.14,0.55c-2.14,2.25,0.61,10.66,7.15,8.78"/>
			</g>
			<path class="st33" d="M85.44,40.98C82.59,28.87,67.92,30.8,67.92,30.8S53.24,28.87,50.4,40.98c0,0-1.52,14.04,0.68,21.56
				c2.2,7.52,7.76,17.15,16.84,17.15s14.49-10.2,16.69-17.72C86.81,54.44,85.44,40.98,85.44,40.98z"/>
			<g>
				<path class="st34" d="M67.18,57.25c0,0,0.56,4.59-1.06,6.96c0,0,0.85,0.52,2.27,1.12"/>
				<path class="st35" d="M63.24,52.28c0,0-5.3-1.68-8.52,0.5C54.73,52.78,58.28,49.51,63.24,52.28z"/>
				<path class="st17" d="M60.83,64.25c-0.08,1.32-1.85,2.28-3.95,2.15c-2.1-0.13-3.75-1.29-3.67-2.61
					c0.08-1.32,1.85-2.28,3.95-2.15C59.26,61.77,60.91,62.94,60.83,64.25z"/>
				<path class="st35" d="M73.18,52.05c0,0,5.34-1.51,8.48,0.78C81.65,52.82,78.21,49.44,73.18,52.05z"/>
				<path class="st17" d="M74.71,64.47c0.12,1.31,1.92,2.22,4.02,2.03c2.1-0.19,3.71-1.41,3.59-2.72c-0.12-1.31-1.92-2.22-4.02-2.03
					C76.2,61.94,74.59,63.15,74.71,64.47z"/>
			</g>
		</g>
		<path class="st36" d="M49.94,55.03l0.91-7.35c0,0,6.96,0.21,8.26-6.81c1.07,2.04,4.53,2.62,5.74,2.83
			c1.32,1.76,4.27,2.88,6.87,2.38c-4.35-2.78-3.46-5.98-3.46-5.98s0.8,3.78,9,5.53c-2.43-2.09-2.94-4.02-2.94-4.02
			s3.04,3.79,9.43,4.11c1.84,4.31,1.48,9.43,1.48,9.43l1.25-9.08c0,0,5.73,1.37,0.8-2.99c-4.93-4.36-4.65-3.91-4.65-3.91l-11.62-3.7
			c0,0-0.77-1.79-8.92-0.77c-8.15,1.02-5.37-4.69-7.86,0.51c-2.49,5.2-2.04,3.39-2.04,3.39l-1.75,3.17l-2.28,2.49v2.66L49.94,55.03z
			"/>
		<path class="st19" d="M49.94,55.03l0.47-8.53c0,0,6.03,0.65,8.39-7.32c1.45,1.87,2.18,3.51,6.88,4.02
			c2.49,2.09,2.88,2.09,6.05,2.88c-1.75-1.3-3.44-4.3-3.05-6.9c1.01,2.49,5.07,6.05,8.59,6.45c-2.26-1.87-2.43-5.09-2.43-5.09
			c2.94,2.7,6.9,4.48,9.33,4.48c0.98,3.05,1.08,10.15,1.08,10.15s1.99-2.24,3.74-0.93c1.36-3.85,2.94-11.88,2.86-13.49
			c-0.08-1.61-1.41-6.19-1.41-6.19s1.67,1.36,3.71,0.94c-1.61-0.94-3.82-3.4-4.58-5.52c-0.76-2.12-3.74-10.1-13.5-9.84
			c3.23-0.25,3.95-1.27,3.95-1.27s-2.59,0.93-5.43-0.25c-2.84-1.19-7.98-2.29-11.84,1.19c0.42-1.06,1.27-2.97,2.88-3.73
			c-2.84,1.36-5.52,2.29-7.59,7.89c-2.8-1.4-8.23-1.4-11.54,4.84c-1.06,2.16-2.84,10.48-6.45,11.79c1.99-0.25,5.01-1.1,5.3-2.21
			c-0.72,2.55-2.67,6.45-3.44,6.7c1.87-0.13,3.31-2.25,3.31-2.25S44.43,49.06,46.86,54C47.67,53.79,48.46,53.55,49.94,55.03z"/>
		<g>
			<g>
				<g>
					<path class="st23" d="M71.73,46.08c-2.03-0.08-4.04-0.86-5.66-2.16c-0.81-0.65-1.49-1.47-1.98-2.38
						c-0.54-0.89-0.76-1.93-0.89-2.92c0.39,0.94,0.76,1.85,1.34,2.65c0.55,0.8,1.2,1.53,1.96,2.13c0.75,0.62,1.58,1.13,2.46,1.58
						C69.84,45.4,70.76,45.79,71.73,46.08z"/>
				</g>
				<g>
					<path class="st23" d="M66.34,40.1c0.6,1.28,1.24,2.47,2.08,3.52c0.41,0.53,0.89,0.98,1.41,1.41c0.52,0.43,1.12,0.73,1.75,1.06
						c-0.7-0.05-1.43-0.24-2.05-0.62c-0.63-0.37-1.19-0.86-1.64-1.42c-0.44-0.57-0.81-1.2-1.07-1.87
						C66.55,41.51,66.37,40.81,66.34,40.1z"/>
				</g>
				<g>
					<path class="st23" d="M70.26,39.07c0.81,1.47,1.75,2.82,2.91,3.93c0.57,0.57,1.21,1.07,1.9,1.5c0.68,0.46,1.43,0.77,2.2,1.13
						c-0.84-0.08-1.69-0.27-2.46-0.67c-0.4-0.16-0.75-0.42-1.12-0.64c-0.34-0.26-0.69-0.53-0.99-0.83c-0.61-0.6-1.15-1.29-1.56-2.04
						C70.72,40.7,70.4,39.9,70.26,39.07z"/>
				</g>
				<g>
					<path class="st23" d="M58.8,39.18c-0.23,1.34-0.75,2.65-1.5,3.81c-0.75,1.17-1.79,2.18-3.04,2.85c-1.25,0.64-2.69,1-4.08,0.85
						l-0.52-0.02l-0.51-0.1l-1.01-0.21c-0.65-0.21-1.29-0.47-1.92-0.73c0.68,0.11,1.32,0.3,1.99,0.4l1,0.1l0.49,0.05l0.5-0.02
						l0.98-0.04l0.96-0.19c0.33-0.03,0.62-0.19,0.93-0.29l0.46-0.16l0.42-0.24c1.15-0.59,2.13-1.5,2.93-2.55
						C57.65,41.63,58.31,40.45,58.8,39.18z"/>
				</g>
				<g>
					<path class="st23" d="M74.83,40.54c0.78,0.73,1.63,1.34,2.51,1.89c0.89,0.54,1.81,1.02,2.78,1.37
						c0.97,0.36,1.97,0.64,2.99,0.79c1.03,0.18,2.07,0.21,3.14,0.25c-0.52,0.11-1.05,0.21-1.58,0.26c-0.54,0.03-1.08,0.07-1.62,0.01
						c-1.08-0.05-2.15-0.31-3.17-0.68c-1.02-0.38-1.98-0.91-2.84-1.57C76.18,42.22,75.42,41.44,74.83,40.54z"/>
				</g>
			</g>
		</g>
		<g>
			<path class="st37" d="M75.13,69.98c-0.01,0.12-0.1,0.63-0.55,1.22c-0.75,1.02-2.57,2.32-6.91,2.32c-3.33,0-5.14-1.2-6.08-2.17
				c-0.59-0.6-0.84-1.14-0.87-1.21c-0.35-0.63-0.17-0.96,0.09-1.14c0.15-0.08,0.34-0.13,0.46-0.13c4.97-0.19,11.32-0.49,13.57-0.03
				C75.26,68.92,75.19,69.57,75.13,69.98z"/>
			<path class="st38" d="M74.86,68.85c-0.05,1.43-0.56,1.43-0.56,1.43c-2.08,0.67-10.05,1.27-13.05,0
				c-0.32-0.13-0.37-0.81-0.43-1.27c0.16-0.09,0.34-0.13,0.47-0.13C66.26,68.68,72.6,68.39,74.86,68.85z"/>
		</g>
		<path class="st38" d="M74.59,71.2c-0.75,1.02-2.57,2.32-6.91,2.32c-3.33,0-5.14-1.2-6.08-2.17c1.44-0.29,6.26-0.15,6.26-0.15
			S72.96,70.98,74.59,71.2z"/>
		<g>
			<g>
				<path class="st15" d="M74.84,58.12c0.59-0.7,1.47-1.42,2.34-1.74c1.39-0.52,2.07,0.41,2.4,1.61c0.08,0.3,0.56,0.32,0.62,0
					c0.26-1.22-0.79-2.35-1.96-2.52c-1.5-0.21-3.08,1.14-3.92,2.25C74.09,58.02,74.6,58.41,74.84,58.12L74.84,58.12z"/>
			</g>
		</g>
		<g>
			<g>
				<path class="st15" d="M62.33,57.72c-0.84-1.11-2.43-2.46-3.92-2.25c-1.18,0.16-2.22,1.3-1.96,2.52c0.07,0.32,0.54,0.3,0.62,0
					c0.33-1.2,1.01-2.13,2.4-1.61c0.87,0.33,1.75,1.04,2.34,1.74C62.05,58.41,62.56,58.02,62.33,57.72L62.33,57.72z"/>
			</g>
		</g>
	</g>
</g>
<g>
</g>
<g>
</g>
<g>
</g>
<g>
</g>
<g>
</g>
<g>
</g>
</svg>
